<svg xmlns="http://www.w3.org/2000/svg" xmlns:xlink="http://www.w3.org/1999/xlink" width="375" zoomAndPan="magnify" viewBox="0 0 281.25 56.249996" height="75" preserveAspectRatio="xMidYMid meet" version="1.0"><defs><g/></defs><g fill="rgb(21.958923%, 34.118652%, 50.979614%)" fill-opacity="1"><g transform="translate(7.38322, 37.295528)"><g><path d="M 3.625 -26.34375 L 11.109375 -26.34375 C 14.410156 -26.34375 17.140625 -25.691406 19.296875 -24.390625 C 21.460938 -23.085938 23.039062 -21.410156 24.03125 -19.359375 C 25.019531 -17.304688 25.515625 -15.125 25.515625 -12.8125 C 25.515625 -10.25 24.914062 -7.992188 23.71875 -6.046875 C 22.519531 -4.109375 20.921875 -2.613281 18.921875 -1.5625 C 16.921875 -0.519531 14.738281 0 12.375 0 L 3.625 0 Z M 11.609375 -4.046875 C 13.492188 -4.046875 15.15625 -4.394531 16.59375 -5.09375 C 18.03125 -5.800781 19.148438 -6.832031 19.953125 -8.1875 C 20.765625 -9.550781 21.171875 -11.1875 21.171875 -13.09375 C 21.171875 -15.175781 20.726562 -16.910156 19.84375 -18.296875 C 18.96875 -19.679688 17.847656 -20.695312 16.484375 -21.34375 C 15.117188 -22 13.710938 -22.328125 12.265625 -22.328125 L 7.859375 -22.328125 L 7.859375 -4.046875 Z M 11.609375 -4.046875 "/></g></g></g><g fill="rgb(21.958923%, 34.118652%, 50.979614%)" fill-opacity="1"><g transform="translate(40.458262, 37.295528)"><g><path d="M 7.859375 -26.34375 L 7.859375 0 L 3.625 0 L 3.625 -26.34375 Z M 7.859375 -26.34375 "/></g></g></g><g fill="rgb(21.958923%, 34.118652%, 50.979614%)" fill-opacity="1"><g transform="translate(57.466963, 37.295528)"><g><path d="M 7.859375 -26.34375 L 7.859375 -4.046875 L 20.84375 -4.046875 L 20.84375 0 L 3.625 0 L 3.625 -26.34375 Z M 7.859375 -26.34375 "/></g></g></g><g fill="rgb(21.958923%, 34.118652%, 50.979614%)" fill-opacity="1"><g transform="translate(85.801709, 37.295528)"><g><path d="M 21.09375 -26.34375 L 21.09375 -22.296875 L 7.859375 -22.296875 L 7.859375 -15.265625 L 19.65625 -15.265625 L 19.65625 -11.21875 L 7.859375 -11.21875 L 7.859375 -4.046875 L 21.609375 -4.046875 L 21.609375 0 L 3.625 0 L 3.625 -26.34375 Z M 21.09375 -26.34375 "/></g></g></g><g fill="rgb(21.958923%, 34.118652%, 50.979614%)" fill-opacity="1"><g transform="translate(115.149658, 37.295528)"><g><path d="M 30.21875 -27.28125 L 30.21875 0 L 26.015625 0 L 26.015625 -15.234375 L 16.796875 -2.140625 L 16.71875 -2.140625 L 7.703125 -14.625 L 7.703125 0 L 3.625 0 L 3.625 -27.28125 L 3.65625 -27.28125 L 16.796875 -8.6875 L 30.140625 -27.28125 Z M 30.21875 -27.28125 "/></g></g></g><g fill="rgb(21.958923%, 34.118652%, 50.979614%)" fill-opacity="1"><g transform="translate(154.520981, 37.295528)"><g><path d="M 30.21875 -27.28125 L 30.21875 0 L 26.015625 0 L 26.015625 -15.234375 L 16.796875 -2.140625 L 16.71875 -2.140625 L 7.703125 -14.625 L 7.703125 0 L 3.625 0 L 3.625 -27.28125 L 3.65625 -27.28125 L 16.796875 -8.6875 L 30.140625 -27.28125 Z M 30.21875 -27.28125 "/></g></g></g><g fill="rgb(21.958923%, 34.118652%, 50.979614%)" fill-opacity="1"><g transform="translate(193.892304, 37.295528)"><g><path d="M 17.15625 -6.1875 L 7.5625 -6.1875 L 5.03125 0 L 0.875 0 L 12.515625 -27.4375 L 12.78125 -27.4375 L 24.421875 0 L 19.578125 0 Z M 15.734375 -9.8125 L 12.453125 -18.125 L 9.046875 -9.8125 Z M 15.734375 -9.8125 "/></g></g></g><g fill="rgb(0%, 0%, 0%)" fill-opacity="1"><g transform="translate(224.715896, 37.295528)"><g><path d="M 18.59375 -4.046875 L 18.59375 0 L 1.953125 0 L 3.25 -1.296875 C 5.644531 -3.691406 7.519531 -5.640625 8.875 -7.140625 C 10.238281 -8.648438 11.375 -10.171875 12.28125 -11.703125 C 13.1875 -13.234375 13.640625 -14.6875 13.640625 -16.0625 C 13.640625 -17.363281 13.238281 -18.363281 12.4375 -19.0625 C 11.644531 -19.769531 10.660156 -20.125 9.484375 -20.125 C 8.203125 -20.125 7.210938 -19.757812 6.515625 -19.03125 C 5.816406 -18.3125 5.46875 -17.503906 5.46875 -16.609375 C 5.46875 -15.109375 5.9375 -13.863281 6.875 -12.875 L 4.3125 -10.53125 C 3.4375 -11.007812 2.726562 -11.867188 2.1875 -13.109375 C 1.644531 -14.359375 1.375 -15.488281 1.375 -16.5 C 1.375 -17.820312 1.722656 -19.070312 2.421875 -20.25 C 3.117188 -21.4375 4.132812 -22.382812 5.46875 -23.09375 C 6.8125 -23.8125 8.390625 -24.171875 10.203125 -24.171875 C 11.722656 -24.171875 13.078125 -23.8125 14.265625 -23.09375 C 15.460938 -22.382812 16.382812 -21.4375 17.03125 -20.25 C 17.6875 -19.070312 18.015625 -17.796875 18.015625 -16.421875 C 18.015625 -15.046875 17.703125 -13.679688 17.078125 -12.328125 C 16.453125 -10.984375 15.695312 -9.734375 14.8125 -8.578125 C 13.9375 -7.421875 12.703125 -5.910156 11.109375 -4.046875 Z M 18.59375 -4.046875 "/></g></g></g><g fill="rgb(0%, 0%, 0%)" fill-opacity="1"><g transform="translate(250.517668, 37.295528)"><g><path d="M 11.328125 0.078125 C 9.398438 0.0976562 7.675781 -0.363281 6.15625 -1.3125 C 4.632812 -2.269531 3.4375 -3.664062 2.5625 -5.5 C 1.695312 -7.332031 1.265625 -9.515625 1.265625 -12.046875 C 1.265625 -16.148438 2.160156 -19.195312 3.953125 -21.1875 C 5.753906 -23.175781 8.210938 -24.160156 11.328125 -24.140625 C 13.253906 -24.160156 14.976562 -23.691406 16.5 -22.734375 C 18.019531 -21.785156 19.207031 -20.398438 20.0625 -18.578125 C 20.914062 -16.753906 21.34375 -14.578125 21.34375 -12.046875 C 21.34375 -9.441406 20.910156 -7.226562 20.046875 -5.40625 C 19.179688 -3.582031 17.992188 -2.207031 16.484375 -1.28125 C 14.972656 -0.351562 13.253906 0.0976562 11.328125 0.078125 Z M 11.296875 -3.9375 C 13.203125 -3.9375 14.625 -4.675781 15.5625 -6.15625 C 16.5 -7.644531 16.96875 -9.644531 16.96875 -12.15625 C 16.96875 -14.59375 16.5 -16.53125 15.5625 -17.96875 C 14.625 -19.40625 13.203125 -20.109375 11.296875 -20.078125 C 9.410156 -20.109375 7.992188 -19.390625 7.046875 -17.921875 C 6.109375 -16.460938 5.640625 -14.503906 5.640625 -12.046875 C 5.640625 -9.585938 6.109375 -7.617188 7.046875 -6.140625 C 7.992188 -4.671875 9.410156 -3.9375 11.296875 -3.9375 Z M 11.296875 -3.9375 "/></g></g></g></svg>