<svg xmlns="http://www.w3.org/2000/svg" xmlns:xlink="http://www.w3.org/1999/xlink" width="375" zoomAndPan="magnify" viewBox="0 0 281.25 37.5" height="50" preserveAspectRatio="xMidYMid meet" version="1.0"><defs><g/></defs><g fill="rgb(21.958923%, 34.118652%, 50.979614%)" fill-opacity="1"><g transform="translate(20.717016, 30.789481)"><g><path d="M 3.25 -23.703125 L 10 -23.703125 C 12.96875 -23.703125 15.421875 -23.113281 17.359375 -21.9375 C 19.304688 -20.769531 20.722656 -19.265625 21.609375 -17.421875 C 22.503906 -15.578125 22.953125 -13.613281 22.953125 -11.53125 C 22.953125 -9.226562 22.414062 -7.203125 21.34375 -5.453125 C 20.269531 -3.703125 18.832031 -2.351562 17.03125 -1.40625 C 15.226562 -0.46875 13.265625 0 11.140625 0 L 3.25 0 Z M 10.453125 -3.640625 C 12.148438 -3.640625 13.644531 -3.953125 14.9375 -4.578125 C 16.226562 -5.210938 17.234375 -6.144531 17.953125 -7.375 C 18.679688 -8.601562 19.046875 -10.070312 19.046875 -11.78125 C 19.046875 -13.65625 18.648438 -15.210938 17.859375 -16.453125 C 17.066406 -17.703125 16.054688 -18.617188 14.828125 -19.203125 C 13.609375 -19.796875 12.34375 -20.09375 11.03125 -20.09375 L 7.0625 -20.09375 L 7.0625 -3.640625 Z M 10.453125 -3.640625 "/></g></g></g><g fill="rgb(21.958923%, 34.118652%, 50.979614%)" fill-opacity="1"><g transform="translate(50.473354, 30.789481)"><g><path d="M 7.0625 -23.703125 L 7.0625 0 L 3.25 0 L 3.25 -23.703125 Z M 7.0625 -23.703125 "/></g></g></g><g fill="rgb(21.958923%, 34.118652%, 50.979614%)" fill-opacity="1"><g transform="translate(65.775601, 30.789481)"><g><path d="M 7.0625 -23.703125 L 7.0625 -3.640625 L 18.75 -3.640625 L 18.75 0 L 3.25 0 L 3.25 -23.703125 Z M 7.0625 -23.703125 "/></g></g></g><g fill="rgb(21.958923%, 34.118652%, 50.979614%)" fill-opacity="1"><g transform="translate(91.267332, 30.789481)"><g><path d="M 18.984375 -23.703125 L 18.984375 -20.0625 L 7.0625 -20.0625 L 7.0625 -13.734375 L 17.6875 -13.734375 L 17.6875 -10.09375 L 7.0625 -10.09375 L 7.0625 -3.640625 L 19.4375 -3.640625 L 19.4375 0 L 3.25 0 L 3.25 -23.703125 Z M 18.984375 -23.703125 "/></g></g></g><g fill="rgb(21.958923%, 34.118652%, 50.979614%)" fill-opacity="1"><g transform="translate(117.670578, 30.789481)"><g><path d="M 27.1875 -24.546875 L 27.1875 0 L 23.40625 0 L 23.40625 -13.703125 L 15.109375 -1.921875 L 15.046875 -1.921875 L 6.9375 -13.15625 L 6.9375 0 L 3.25 0 L 3.25 -24.546875 L 3.28125 -24.546875 L 15.109375 -7.8125 L 27.125 -24.546875 Z M 27.1875 -24.546875 "/></g></g></g><g fill="rgb(21.958923%, 34.118652%, 50.979614%)" fill-opacity="1"><g transform="translate(153.091355, 30.789481)"><g><path d="M 27.1875 -24.546875 L 27.1875 0 L 23.40625 0 L 23.40625 -13.703125 L 15.109375 -1.921875 L 15.046875 -1.921875 L 6.9375 -13.15625 L 6.9375 0 L 3.25 0 L 3.25 -24.546875 L 3.28125 -24.546875 L 15.109375 -7.8125 L 27.125 -24.546875 Z M 27.1875 -24.546875 "/></g></g></g><g fill="rgb(21.958923%, 34.118652%, 50.979614%)" fill-opacity="1"><g transform="translate(188.512132, 30.789481)"><g><path d="M 15.4375 -5.5625 L 6.8125 -5.5625 L 4.53125 0 L 0.78125 0 L 11.265625 -24.6875 L 11.5 -24.6875 L 21.984375 0 L 17.609375 0 Z M 14.171875 -8.828125 L 11.203125 -16.3125 L 8.140625 -8.828125 Z M 14.171875 -8.828125 "/></g></g></g><g fill="rgb(0%, 0%, 0%)" fill-opacity="1"><g transform="translate(216.238958, 30.789481)"><g><path d="M 16.734375 -3.640625 L 16.734375 0 L 1.765625 0 L 2.9375 -1.171875 C 5.082031 -3.316406 6.765625 -5.066406 7.984375 -6.421875 C 9.210938 -7.785156 10.234375 -9.15625 11.046875 -10.53125 C 11.867188 -11.914062 12.28125 -13.222656 12.28125 -14.453125 C 12.28125 -15.628906 11.921875 -16.53125 11.203125 -17.15625 C 10.484375 -17.789062 9.59375 -18.109375 8.53125 -18.109375 C 7.382812 -18.109375 6.492188 -17.78125 5.859375 -17.125 C 5.234375 -16.476562 4.921875 -15.753906 4.921875 -14.953125 C 4.921875 -13.597656 5.34375 -12.476562 6.1875 -11.59375 L 3.875 -9.46875 C 3.09375 -9.90625 2.457031 -10.679688 1.96875 -11.796875 C 1.476562 -12.921875 1.234375 -13.9375 1.234375 -14.84375 C 1.234375 -16.039062 1.546875 -17.171875 2.171875 -18.234375 C 2.804688 -19.296875 3.722656 -20.144531 4.921875 -20.78125 C 6.128906 -21.425781 7.550781 -21.75 9.1875 -21.75 C 10.550781 -21.75 11.769531 -21.425781 12.84375 -20.78125 C 13.914062 -20.144531 14.742188 -19.296875 15.328125 -18.234375 C 15.921875 -17.171875 16.21875 -16.019531 16.21875 -14.78125 C 16.21875 -13.539062 15.929688 -12.3125 15.359375 -11.09375 C 14.796875 -9.882812 14.117188 -8.757812 13.328125 -7.71875 C 12.535156 -6.675781 11.425781 -5.316406 10 -3.640625 Z M 16.734375 -3.640625 "/></g></g></g><g fill="rgb(0%, 0%, 0%)" fill-opacity="1"><g transform="translate(239.451893, 30.789481)"><g><path d="M 10.1875 0.0625 C 8.457031 0.0820312 6.90625 -0.332031 5.53125 -1.1875 C 4.164062 -2.039062 3.09375 -3.289062 2.3125 -4.9375 C 1.53125 -6.59375 1.140625 -8.5625 1.140625 -10.84375 C 1.140625 -14.53125 1.945312 -17.269531 3.5625 -19.0625 C 5.175781 -20.851562 7.382812 -21.738281 10.1875 -21.71875 C 11.925781 -21.738281 13.476562 -21.316406 14.84375 -20.453125 C 16.21875 -19.597656 17.289062 -18.351562 18.0625 -16.71875 C 18.832031 -15.082031 19.21875 -13.125 19.21875 -10.84375 C 19.21875 -8.5 18.828125 -6.503906 18.046875 -4.859375 C 17.265625 -3.222656 16.191406 -1.988281 14.828125 -1.15625 C 13.472656 -0.320312 11.925781 0.0820312 10.1875 0.0625 Z M 10.15625 -3.546875 C 11.875 -3.546875 13.15625 -4.210938 14 -5.546875 C 14.84375 -6.878906 15.265625 -8.675781 15.265625 -10.9375 C 15.265625 -13.132812 14.84375 -14.878906 14 -16.171875 C 13.15625 -17.460938 11.875 -18.097656 10.15625 -18.078125 C 8.46875 -18.097656 7.195312 -17.453125 6.34375 -16.140625 C 5.5 -14.828125 5.078125 -13.0625 5.078125 -10.84375 C 5.078125 -8.625 5.5 -6.851562 6.34375 -5.53125 C 7.195312 -4.207031 8.46875 -3.546875 10.15625 -3.546875 Z M 10.15625 -3.546875 "/></g></g></g></svg>