<svg width="952" height="229" viewBox="0 0 952 229" fill="none" xmlns="http://www.w3.org/2000/svg">
<path d="M12 182.6C10.9333 182.6 10.0667 182.2 9.4 181.4C8.86667 180.467 8.6 179.4 8.6 178.2C8.73333 176.2 9.13333 175 9.8 174.6C10.4667 174.2 11.7333 174 13.6 174C17.4667 174 20.3333 173.333 22.2 172C24.0667 170.533 25.2 168.8 25.6 166.8C26.1333 164.667 26.4667 161.933 26.6 158.6V79.2C26.4667 75.8667 26.1333 73.2 25.6 71.2C25.2 69.0667 24.0667 67.3333 22.2 66C20.3333 64.5333 17.4667 63.8 13.6 63.8H12.4C11.0667 63.8 10.1333 63.6 9.6 63.2C9.06667 62.6667 8.73333 61.4667 8.6 59.6C8.6 58.4 8.86667 57.4 9.4 56.6C10.0667 55.6667 10.9333 55.2 12 55.2C20.8 55.6 28.7333 55.8 35.8 55.8H67C79.8 55.8 91.4 58.4 101.8 63.6C112.333 68.6667 120.6 76 126.6 85.6C132.733 95.2 135.8 106.533 135.8 119.6C135.8 133.2 132.333 144.733 125.4 154.2C118.6 163.533 109.667 170.533 98.6 175.2C87.6667 179.733 75.9333 182 63.4 182H35.8C28.7333 182 20.8 182.2 12 182.6ZM66.4 174.6C82 174.6 93.4 169.8 100.6 160.2C107.933 150.467 111.6 136.933 111.6 119.6C111.6 108.667 109.6 98.9333 105.6 90.4C101.733 81.7333 96.0667 75 88.6 70.2C81.1333 65.4 72.2667 63 62 63L46.4 63.2V161C46.4 166.2 47.9333 169.8 51 171.8C54.2 173.667 59.3333 174.6 66.4 174.6ZM153.941 182.6C153.007 182.6 152.207 182.2 151.541 181.4C151.007 180.6 150.741 179.667 150.741 178.6C150.874 176.867 151.274 175.867 151.941 175.6C152.607 175.2 153.807 175 155.541 175C159.007 175 161.474 174.4 162.941 173.2C164.407 172 165.207 170.6 165.341 169C165.607 167.4 165.741 164.867 165.741 161.4V115.6C165.741 112.133 165.607 109.6 165.341 108C165.207 106.4 164.407 105 162.941 103.8C161.474 102.6 159.007 102 155.541 102C153.941 102 152.741 101.8 151.941 101.4C151.141 100.867 150.741 99.7333 150.741 98C150.741 97.2 151.007 96.4667 151.541 95.8C152.074 95 152.874 94.5333 153.941 94.4C162.341 93.2 169.541 91.4667 175.541 89.2C177.407 88.5333 178.941 88.1333 180.141 88H180.741C182.874 88 183.941 89.2667 183.941 91.8V161.4C183.941 164.867 184.074 167.4 184.341 169C184.607 170.6 185.474 172 186.941 173.2C188.407 174.4 190.874 175 194.341 175H195.541C196.607 175 197.407 175.2 197.941 175.6C198.474 176 198.807 177 198.941 178.6C198.941 179.667 198.674 180.6 198.141 181.4C197.607 182.2 196.807 182.6 195.741 182.6C188.007 182.2 181.007 182 174.741 182C168.741 182 161.807 182.2 153.941 182.6ZM173.741 65.8C170.007 65.8 166.874 64.6667 164.341 62.4C161.807 60 160.541 57.0667 160.541 53.6C160.541 50.5333 162.074 47.8 165.141 45.4C168.207 43 171.674 41.8 175.541 41.8C178.874 41.8 181.607 43 183.741 45.4C185.874 47.6667 186.941 50.6 186.941 54.2C186.941 57.4 185.674 60.1333 183.141 62.4C180.607 64.6667 177.474 65.8 173.741 65.8ZM211.12 182.6C210.187 182.6 209.387 182.2 208.72 181.4C208.187 180.6 207.92 179.667 207.92 178.6C208.054 176.867 208.387 175.867 208.92 175.6C209.587 175.2 210.787 175 212.52 175C215.987 175 218.454 174.4 219.92 173.2C221.387 172 222.254 170.6 222.52 169C222.787 167.4 222.92 164.867 222.92 161.4V63.8C222.92 60.3333 222.787 57.8 222.52 56.2C222.387 54.6 221.587 53.2 220.12 52C218.654 50.8 216.187 50.2 212.72 50.2C211.12 50.2 209.92 50 209.12 49.6C208.32 49.0667 207.92 47.9333 207.92 46.2C207.92 45.4 208.187 44.6667 208.72 44C209.254 43.2 210.054 42.7333 211.12 42.6C219.52 41.4 226.72 39.6667 232.72 37.4C234.587 36.7333 236.12 36.3333 237.32 36.2H237.92C240.054 36.2 241.12 37.4667 241.12 40V161.4C241.12 164.867 241.254 167.4 241.52 169C241.787 170.6 242.654 172 244.12 173.2C245.587 174.4 248.054 175 251.52 175H252.72C253.787 175 254.587 175.2 255.12 175.6C255.654 176 255.987 177 256.12 178.6C256.12 179.667 255.854 180.6 255.32 181.4C254.787 182.2 253.987 182.6 252.92 182.6C245.187 182.2 238.187 182 231.92 182C225.92 182 218.987 182.2 211.12 182.6ZM314.18 184.4C304.18 184.4 295.646 182.267 288.58 178C281.646 173.733 276.38 167.933 272.78 160.6C269.18 153.267 267.38 145.133 267.38 136.2C267.38 128.333 269.18 120.8 272.78 113.6C276.513 106.267 281.78 100.333 288.58 95.8C295.38 91.2667 303.18 89 311.98 89C323.846 89 332.98 92.0667 339.38 98.2C345.78 104.2 349.446 112.333 350.38 122.6C350.38 127 349.18 130 346.78 131.6C344.38 133.2 340.913 134 336.38 134H287.78C287.78 146.4 290.313 156.267 295.38 163.6C300.58 170.8 308.58 174.4 319.38 174.4C325.113 174.4 329.98 173.2 333.98 170.8C337.98 168.267 341.78 164.067 345.38 158.2C346.046 157.533 346.713 157.2 347.38 157.2C348.313 157.2 349.113 157.467 349.78 158C351.113 158.8 351.78 160 351.78 161.6C351.78 162.4 351.646 163 351.38 163.4C347.246 170.067 341.98 175.267 335.58 179C329.313 182.6 322.18 184.4 314.18 184.4ZM320.38 126.4C327.18 126.4 330.78 123.6 331.18 118C331.18 111.867 329.513 106.667 326.18 102.4C322.846 98.1333 318.113 96 311.98 96C305.18 96 299.58 98.7333 295.18 104.2C290.78 109.533 288.313 116.933 287.78 126.4H320.38ZM369.57 182.6C368.637 182.6 367.837 182.2 367.17 181.4C366.637 180.6 366.37 179.667 366.37 178.6C366.504 176.867 366.837 175.867 367.37 175.6C368.037 175.2 369.237 175 370.97 175C374.437 175 376.904 174.4 378.37 173.2C379.837 172 380.704 170.6 380.97 169C381.237 167.4 381.37 164.867 381.37 161.4V115.6C381.37 112.133 381.237 109.6 380.97 108C380.837 106.4 380.037 105 378.57 103.8C377.104 102.6 374.637 102 371.17 102C369.57 102 368.37 101.8 367.57 101.4C366.77 100.867 366.37 99.7333 366.37 98C366.37 97.2 366.637 96.4667 367.17 95.8C367.704 95 368.504 94.5333 369.57 94.4C378.237 93.0667 385.37 91.3333 390.97 89.2C393.237 88.5333 394.77 88.1333 395.57 88H396.17C398.304 88 399.37 89.2667 399.37 91.8V104.4H399.97C400.77 103.6 402.77 101.667 405.97 98.6C409.17 95.4 412.77 93 416.77 91.4C420.904 89.8 425.57 89 430.77 89C437.17 89 442.704 90.4 447.37 93.2C452.037 95.8667 455.504 99.6 457.77 104.4H458.17C463.37 99.4667 468.304 95.6667 472.97 93C477.77 90.3333 483.904 89 491.37 89C500.437 89 507.637 91.7333 512.97 97.2C518.304 102.667 520.97 109.867 520.97 118.8V161.4C520.97 164.867 521.104 167.4 521.37 169C521.637 170.6 522.504 172 523.97 173.2C525.437 174.4 527.904 175 531.37 175H532.57C533.637 175 534.437 175.2 534.97 175.6C535.504 176 535.837 177 535.97 178.6C535.97 179.667 535.637 180.6 534.97 181.4C534.437 182.2 533.704 182.6 532.77 182.6C525.037 182.2 518.037 182 511.77 182C505.77 182 498.837 182.2 490.97 182.6C489.904 182.6 489.104 182.2 488.57 181.4C488.037 180.6 487.77 179.667 487.77 178.6C487.904 176.867 488.237 175.867 488.77 175.6C489.437 175.2 490.637 175 492.37 175C495.837 175 498.304 174.4 499.77 173.2C501.237 172 502.104 170.6 502.37 169C502.637 167.4 502.77 164.867 502.77 161.4V119C502.77 112.867 500.837 108.2 496.97 105C493.104 101.667 488.637 100 483.57 100C477.437 100 472.437 101.467 468.57 104.4C464.704 107.333 461.97 110.467 460.37 113.8V161.4C460.37 162.2 460.304 164 460.17 166.8C460.17 169.6 460.904 171.667 462.37 173C463.97 174.333 466.504 175 469.97 175H471.17C472.37 175 473.17 175.2 473.57 175.6C474.104 176 474.437 177 474.57 178.6C474.57 179.667 474.304 180.6 473.77 181.4C473.237 182.2 472.437 182.6 471.37 182.6C463.504 182.2 456.704 182 450.97 182C445.504 182 438.837 182.2 430.97 182.6C429.904 182.6 429.104 182.2 428.57 181.4C428.037 180.6 427.77 179.667 427.77 178.6C427.904 176.867 428.237 175.867 428.77 175.6C429.437 175.2 430.637 175 432.37 175C436.77 175 439.504 174.133 440.57 172.4C441.637 170.533 442.104 168.467 441.97 166.2C441.97 163.8 441.97 162.2 441.97 161.4V119C441.97 112.867 440.037 108.2 436.17 105C432.437 101.667 428.037 100 422.97 100C416.837 100 411.837 101.467 407.97 104.4C404.104 107.333 401.304 110.467 399.57 113.8V161.4C399.57 164.867 399.704 167.4 399.97 169C400.237 170.6 401.104 172 402.57 173.2C404.037 174.4 406.504 175 409.97 175H411.17C412.237 175 413.037 175.2 413.57 175.6C414.104 176 414.437 177 414.57 178.6C414.57 179.667 414.304 180.6 413.77 181.4C413.237 182.2 412.437 182.6 411.37 182.6C403.637 182.2 396.637 182 390.37 182C384.37 182 377.437 182.2 369.57 182.6ZM547.891 182.6C546.957 182.6 546.157 182.2 545.491 181.4C544.957 180.6 544.691 179.667 544.691 178.6C544.824 176.867 545.157 175.867 545.691 175.6C546.357 175.2 547.557 175 549.291 175C552.757 175 555.224 174.4 556.691 173.2C558.157 172 559.024 170.6 559.291 169C559.557 167.4 559.691 164.867 559.691 161.4V115.6C559.691 112.133 559.557 109.6 559.291 108C559.157 106.4 558.357 105 556.891 103.8C555.424 102.6 552.957 102 549.491 102C547.891 102 546.691 101.8 545.891 101.4C545.091 100.867 544.691 99.7333 544.691 98C544.691 97.2 544.957 96.4667 545.491 95.8C546.024 95 546.824 94.5333 547.891 94.4C556.557 93.0667 563.691 91.3333 569.291 89.2C571.557 88.5333 573.091 88.1333 573.891 88H574.491C576.624 88 577.691 89.2667 577.691 91.8V104.4H578.291C579.091 103.6 581.091 101.667 584.291 98.6C587.491 95.4 591.091 93 595.091 91.4C599.224 89.8 603.891 89 609.091 89C615.491 89 621.024 90.4 625.691 93.2C630.357 95.8667 633.824 99.6 636.091 104.4H636.491C641.691 99.4667 646.624 95.6667 651.291 93C656.091 90.3333 662.224 89 669.691 89C678.757 89 685.957 91.7333 691.291 97.2C696.624 102.667 699.291 109.867 699.291 118.8V161.4C699.291 164.867 699.424 167.4 699.691 169C699.957 170.6 700.824 172 702.291 173.2C703.757 174.4 706.224 175 709.691 175H710.891C711.957 175 712.757 175.2 713.291 175.6C713.824 176 714.157 177 714.291 178.6C714.291 179.667 713.957 180.6 713.291 181.4C712.757 182.2 712.024 182.6 711.091 182.6C703.357 182.2 696.357 182 690.091 182C684.091 182 677.157 182.2 669.291 182.6C668.224 182.6 667.424 182.2 666.891 181.4C666.357 180.6 666.091 179.667 666.091 178.6C666.224 176.867 666.557 175.867 667.091 175.6C667.757 175.2 668.957 175 670.691 175C674.157 175 676.624 174.4 678.091 173.2C679.557 172 680.424 170.6 680.691 169C680.957 167.4 681.091 164.867 681.091 161.4V119C681.091 112.867 679.157 108.2 675.291 105C671.424 101.667 666.957 100 661.891 100C655.757 100 650.757 101.467 646.891 104.4C643.024 107.333 640.291 110.467 638.691 113.8V161.4C638.691 162.2 638.624 164 638.491 166.8C638.491 169.6 639.224 171.667 640.691 173C642.291 174.333 644.824 175 648.291 175H649.491C650.691 175 651.491 175.2 651.891 175.6C652.424 176 652.757 177 652.891 178.6C652.891 179.667 652.624 180.6 652.091 181.4C651.557 182.2 650.757 182.6 649.691 182.6C641.824 182.2 635.024 182 629.291 182C623.824 182 617.157 182.2 609.291 182.6C608.224 182.6 607.424 182.2 606.891 181.4C606.357 180.6 606.091 179.667 606.091 178.6C606.224 176.867 606.557 175.867 607.091 175.6C607.757 175.2 608.957 175 610.691 175C615.091 175 617.824 174.133 618.891 172.4C619.957 170.533 620.424 168.467 620.291 166.2C620.291 163.8 620.291 162.2 620.291 161.4V119C620.291 112.867 618.357 108.2 614.491 105C610.757 101.667 606.357 100 601.291 100C595.157 100 590.157 101.467 586.291 104.4C582.424 107.333 579.624 110.467 577.891 113.8V161.4C577.891 164.867 578.024 167.4 578.291 169C578.557 170.6 579.424 172 580.891 173.2C582.357 174.4 584.824 175 588.291 175H589.491C590.557 175 591.357 175.2 591.891 175.6C592.424 176 592.757 177 592.891 178.6C592.891 179.667 592.624 180.6 592.091 181.4C591.557 182.2 590.757 182.6 589.691 182.6C581.957 182.2 574.957 182 568.691 182C562.691 182 555.757 182.2 547.891 182.6ZM750.788 184.4C742.788 184.4 736.321 182.133 731.388 177.6C726.454 173.067 723.988 167.4 723.988 160.6C723.988 152.2 726.788 145.933 732.388 141.8C737.988 137.533 744.654 134.8 752.388 133.6C760.121 132.267 770.121 131.267 782.388 130.6V114.8C782.388 108.267 780.721 103.333 777.388 100C774.188 96.5333 768.988 94.8 761.788 94.8C757.654 94.8 754.054 96.0667 750.988 98.6C747.921 101.133 746.388 104.533 746.388 108.8C746.388 110.933 746.854 112.733 747.788 114.2C748.854 115.533 749.921 116.667 750.988 117.6C752.188 118.533 752.788 119.067 752.788 119.2C752.788 120 751.921 121.067 750.188 122.4C748.588 123.6 746.588 124.2 744.188 124.2C740.188 124.2 736.988 122.733 734.588 119.8C732.321 116.867 731.188 113.4 731.188 109.4C731.188 102.467 734.254 97.3333 740.388 94C746.654 90.6667 754.188 89 762.988 89C773.921 89 782.788 91.0667 789.588 95.2C796.521 99.3333 799.988 107 799.988 118.2V164.8C800.121 167.6 800.988 170.267 802.588 172.8C804.188 175.333 806.788 176.6 810.388 176.6C811.454 176.6 812.188 176.8 812.588 177.2C813.121 177.6 813.388 178.467 813.388 179.8C813.388 181.4 812.121 182.533 809.588 183.2C807.188 184 804.788 184.4 802.388 184.4C797.321 184.4 792.854 182.933 788.988 180C785.121 177.067 782.921 173.133 782.388 168.2C779.588 173.4 775.254 177.4 769.388 180.2C763.654 183 757.454 184.4 750.788 184.4ZM757.188 173.6C761.721 173.6 765.921 172.467 769.788 170.2C773.654 167.933 776.721 164.867 778.988 161C781.254 157 782.388 152.6 782.388 147.8V136.4C768.388 137.467 758.521 139.733 752.788 143.2C747.054 146.667 744.188 152.267 744.188 160C744.188 169.067 748.521 173.6 757.188 173.6Z" fill="#861489"/>
<path d="M822.04 133.36V117.64C824.84 115.88 828.52 114.44 833.08 113.32C837.64 112.2 842.6 111.64 847.96 111.64C856.52 111.64 863.36 113.32 868.48 116.68C873.68 120.04 876.28 125.72 876.28 133.72C876.28 140.04 874.8 145.12 871.84 148.96C868.96 152.72 863.84 156 856.48 158.8C849.36 161.52 844.44 163.84 841.72 165.76C839.08 167.6 837.76 169.44 837.76 171.28H876.88V186.52H820V173.08C820 169 820.68 165.52 822.04 162.64C823.48 159.76 825.92 157.12 829.36 154.72C832.8 152.32 837.56 149.84 843.64 147.28C848.2 145.36 851.76 143.52 854.32 141.76C856.96 139.92 858.24 137.72 858.16 135.16C858.08 132.12 856.92 130 854.68 128.8C852.52 127.52 849.44 126.88 845.44 126.88C841.6 126.88 837.68 127.56 833.68 128.92C829.68 130.2 826.16 131.68 823.12 133.36H822.04ZM946.907 149.32C946.907 158.44 945.867 165.76 943.787 171.28C941.707 176.8 938.347 180.8 933.707 183.28C929.067 185.76 922.867 187 915.107 187C907.427 187 901.267 185.76 896.627 183.28C891.987 180.8 888.627 176.8 886.547 171.28C884.467 165.76 883.427 158.44 883.427 149.32C883.427 140.12 884.467 132.76 886.547 127.24C888.627 121.72 891.987 117.72 896.627 115.24C901.267 112.76 907.427 111.52 915.107 111.52C922.867 111.52 929.067 112.76 933.707 115.24C938.347 117.72 941.707 121.72 943.787 127.24C945.867 132.76 946.907 140.12 946.907 149.32ZM915.107 171.04C920.547 171.04 924.107 169.28 925.787 165.76C927.547 162.16 928.427 156.68 928.427 149.32C928.427 141.88 927.547 136.4 925.787 132.88C924.107 129.36 920.547 127.6 915.107 127.6C909.747 127.6 906.187 129.36 904.427 132.88C902.747 136.4 901.907 141.88 901.907 149.32C901.907 156.68 902.747 162.16 904.427 165.76C906.187 169.28 909.747 171.04 915.107 171.04Z" fill="#2B2A2A"/>
</svg>
