<svg width="1055" height="350" viewBox="0 0 1055 350" fill="none" xmlns="http://www.w3.org/2000/svg">
<path d="M6.00586 161.365H78.7354C86.9873 161.365 94.6533 162.171 101.733 163.782C108.813 165.394 114.941 168.152 120.117 172.059C125.342 175.916 129.419 181.067 132.349 187.513C135.327 193.958 136.816 201.99 136.816 211.609C136.816 218.055 136.133 223.792 134.766 228.821C133.447 233.802 131.567 238.147 129.126 241.858C126.685 245.569 123.706 248.719 120.19 251.307C116.724 253.895 112.842 255.97 108.545 257.532C104.297 259.095 99.6582 260.242 94.6289 260.975C89.6484 261.658 84.3994 262 78.8818 262H6.00586V253.724H27.0264V169.568H6.00586V161.365ZM127.368 211.609C127.368 206.141 126.831 201.307 125.757 197.107C124.683 192.908 123.145 189.271 121.143 186.194C119.141 183.069 116.699 180.457 113.818 178.357C110.938 176.258 107.69 174.573 104.077 173.304C100.464 171.985 96.5332 171.058 92.2852 170.521C88.0371 169.983 83.5205 169.715 78.7354 169.715H36.1816V253.577H78.7354C85.9131 253.577 92.4805 252.942 98.4375 251.673C104.395 250.354 109.497 248.108 113.745 244.935C118.042 241.712 121.387 237.415 123.779 232.044C126.172 226.624 127.368 219.812 127.368 211.609ZM150.073 192.273H175.708V253.724H192.261V262H150.073V253.724H166.553V200.477H150.073V192.273ZM161.938 172.718C161.938 171.595 162.134 170.545 162.524 169.568C162.964 168.543 163.55 167.664 164.282 166.932C165.015 166.199 165.869 165.613 166.846 165.174C167.822 164.734 168.872 164.515 169.995 164.515C171.118 164.515 172.168 164.734 173.145 165.174C174.17 165.613 175.049 166.199 175.781 166.932C176.562 167.664 177.173 168.543 177.612 169.568C178.052 170.545 178.271 171.595 178.271 172.718C178.271 173.841 178.052 174.915 177.612 175.94C177.173 176.917 176.562 177.771 175.781 178.504C175.049 179.236 174.17 179.822 173.145 180.262C172.168 180.652 171.118 180.848 169.995 180.848C168.872 180.848 167.822 180.652 166.846 180.262C165.869 179.822 165.015 179.236 164.282 178.504C163.55 177.771 162.964 176.917 162.524 175.94C162.134 174.915 161.938 173.841 161.938 172.718ZM193.213 161.365H218.848V239.222C218.848 242.151 219.092 244.544 219.58 246.399C220.068 248.206 220.825 249.622 221.851 250.647C222.925 251.624 224.292 252.283 225.952 252.625C227.661 252.967 229.688 253.138 232.031 253.138H239.209V262H232.178C228.271 262 224.902 261.658 222.07 260.975C219.238 260.242 216.895 258.997 215.039 257.239C213.232 255.481 211.89 253.138 211.011 250.208C210.132 247.229 209.692 243.47 209.692 238.929V169.568H193.213V161.365ZM322.412 223.621C322.168 220.301 321.411 217.151 320.142 214.173C318.872 211.194 316.968 208.582 314.429 206.336C311.89 204.041 308.691 202.234 304.834 200.916C300.977 199.549 296.338 198.865 290.918 198.865C285.84 198.865 281.348 199.549 277.441 200.916C273.535 202.234 270.215 204.041 267.48 206.336C264.746 208.582 262.598 211.194 261.035 214.173C259.473 217.151 258.472 220.301 258.032 223.621H322.412ZM290.771 263.831C284.375 263.831 278.564 263.001 273.34 261.341C268.164 259.632 263.745 257.215 260.083 254.09C256.421 250.916 253.589 247.083 251.587 242.591C249.585 238.099 248.584 233.069 248.584 227.503C248.584 222.083 249.634 217.127 251.733 212.635C253.833 208.094 256.763 204.212 260.522 200.989C264.282 197.718 268.75 195.203 273.926 193.445C279.102 191.639 284.766 190.735 290.918 190.735C297.314 190.735 303.052 191.639 308.13 193.445C313.208 195.252 317.505 197.864 321.021 201.282C324.536 204.651 327.222 208.753 329.077 213.587C330.933 218.421 331.86 223.865 331.86 229.92V231.531H258.032C258.374 235.242 259.326 238.587 260.889 241.565C262.5 244.544 264.697 247.083 267.48 249.183C270.264 251.282 273.584 252.894 277.441 254.017C281.348 255.14 285.791 255.701 290.771 255.701C295.557 255.701 299.707 255.311 303.223 254.529C306.787 253.748 309.79 252.698 312.231 251.38C314.722 250.062 316.724 248.572 318.237 246.912C319.8 245.252 320.996 243.543 321.826 241.785H330.981C328.101 249.207 323.193 254.749 316.26 258.411C309.375 262.024 300.879 263.831 290.771 263.831ZM464.062 253.724H480.542V216.883C480.542 213.172 480.078 210.12 479.15 207.728C478.223 205.286 476.904 203.357 475.195 201.941C473.486 200.525 471.411 199.549 468.97 199.012C466.577 198.426 463.892 198.133 460.913 198.133C457.739 198.133 454.639 198.621 451.611 199.598C448.584 200.574 445.679 201.819 442.896 203.333C440.112 204.847 437.524 206.507 435.132 208.313C432.739 210.071 430.64 211.756 428.833 213.367V214.173V253.724H445.312V262H403.198V253.724H419.678V216.883C419.678 213.172 419.214 210.12 418.286 207.728C417.358 205.286 416.016 203.357 414.258 201.941C412.549 200.525 410.474 199.549 408.032 199.012C405.64 198.426 402.979 198.133 400.049 198.133C396.777 198.133 393.604 198.621 390.527 199.598C387.451 200.574 384.521 201.795 381.738 203.26C379.004 204.725 376.465 206.36 374.121 208.167C371.777 209.925 369.702 211.609 367.896 213.221V253.724H384.448V262H342.261V253.724H358.74V200.477H342.261V192.273H367.896V204.725C370.19 202.723 372.632 200.818 375.22 199.012C377.808 197.205 380.542 195.643 383.423 194.324C386.304 192.957 389.307 191.883 392.432 191.102C395.605 190.271 398.926 189.856 402.393 189.856C409.375 189.856 414.941 191.248 419.092 194.031C423.242 196.766 426.074 200.574 427.588 205.457C429.883 203.504 432.397 201.6 435.132 199.744C437.866 197.84 440.747 196.155 443.774 194.69C446.851 193.226 450.024 192.054 453.296 191.175C456.616 190.296 459.961 189.856 463.33 189.856C467.725 189.856 471.558 190.442 474.829 191.614C478.149 192.737 480.908 194.349 483.105 196.448C485.303 198.548 486.938 201.111 488.013 204.139C489.136 207.117 489.697 210.462 489.697 214.173V253.724H506.25V262H464.062V253.724ZM633.838 253.724H650.317V216.883C650.317 213.172 649.854 210.12 648.926 207.728C647.998 205.286 646.68 203.357 644.971 201.941C643.262 200.525 641.187 199.549 638.745 199.012C636.353 198.426 633.667 198.133 630.688 198.133C627.515 198.133 624.414 198.621 621.387 199.598C618.359 200.574 615.454 201.819 612.671 203.333C609.888 204.847 607.3 206.507 604.907 208.313C602.515 210.071 600.415 211.756 598.608 213.367V214.173V253.724H615.088V262H572.974V253.724H589.453V216.883C589.453 213.172 588.989 210.12 588.062 207.728C587.134 205.286 585.791 203.357 584.033 201.941C582.324 200.525 580.249 199.549 577.808 199.012C575.415 198.426 572.754 198.133 569.824 198.133C566.553 198.133 563.379 198.621 560.303 199.598C557.227 200.574 554.297 201.795 551.514 203.26C548.779 204.725 546.24 206.36 543.896 208.167C541.553 209.925 539.478 211.609 537.671 213.221V253.724H554.224V262H512.036V253.724H528.516V200.477H512.036V192.273H537.671V204.725C539.966 202.723 542.407 200.818 544.995 199.012C547.583 197.205 550.317 195.643 553.198 194.324C556.079 192.957 559.082 191.883 562.207 191.102C565.381 190.271 568.701 189.856 572.168 189.856C579.15 189.856 584.717 191.248 588.867 194.031C593.018 196.766 595.85 200.574 597.363 205.457C599.658 203.504 602.173 201.6 604.907 199.744C607.642 197.84 610.522 196.155 613.55 194.69C616.626 193.226 619.8 192.054 623.071 191.175C626.392 190.296 629.736 189.856 633.105 189.856C637.5 189.856 641.333 190.442 644.604 191.614C647.925 192.737 650.684 194.349 652.881 196.448C655.078 198.548 656.714 201.111 657.788 204.139C658.911 207.117 659.473 210.462 659.473 214.173V253.724H676.025V262H633.838V253.724ZM752.051 253.87C749.805 254.993 747.314 256.165 744.58 257.386C741.846 258.558 738.892 259.632 735.718 260.608C732.544 261.585 729.175 262.391 725.61 263.025C722.046 263.66 718.311 263.978 714.404 263.978C710.01 263.978 706.03 263.538 702.466 262.659C698.901 261.78 695.874 260.486 693.384 258.777C690.894 257.02 688.965 254.871 687.598 252.332C686.23 249.744 685.547 246.766 685.547 243.396C685.547 238.172 687.231 233.899 690.601 230.579C693.97 227.259 698.608 224.622 704.517 222.669C710.474 220.667 717.505 219.202 725.61 218.274C733.716 217.347 742.529 216.663 752.051 216.224V212.781C752.051 210.193 751.343 207.972 749.927 206.116C748.511 204.261 746.606 202.747 744.214 201.575C741.821 200.403 739.038 199.549 735.864 199.012C732.739 198.426 729.419 198.133 725.903 198.133C721.802 198.133 718.213 198.401 715.137 198.938C712.109 199.427 709.546 200.184 707.446 201.209C705.347 202.186 703.662 203.406 702.393 204.871C701.172 206.287 700.269 207.923 699.683 209.778L690.381 207.581C691.943 202.112 695.654 197.864 701.514 194.837C707.422 191.81 715.454 190.296 725.61 190.296C730.737 190.296 735.474 190.735 739.819 191.614C744.165 192.493 747.9 193.885 751.025 195.789C754.199 197.693 756.665 200.184 758.423 203.26C760.229 206.287 761.133 209.974 761.133 214.319V253.724H778.564V262H752.051V253.87ZM752.051 223.914C741.357 224.305 732.349 225.013 725.024 226.038C717.7 227.015 711.768 228.309 707.227 229.92C702.734 231.482 699.487 233.362 697.485 235.56C695.532 237.708 694.556 240.174 694.556 242.957C694.556 247.254 696.411 250.525 700.122 252.771C703.882 255.018 709.375 256.141 716.602 256.141C719.678 256.141 722.949 255.799 726.416 255.115C729.932 254.432 733.325 253.577 736.597 252.552C739.868 251.478 742.871 250.281 745.605 248.963C748.34 247.645 750.488 246.351 752.051 245.081V223.914Z" fill="#861489"/>
<path d="M785.5 151.25V118.5C791.333 114.833 799 111.833 808.5 109.5C818 107.167 828.333 106 839.5 106C857.333 106 871.583 109.5 882.25 116.5C893.083 123.5 898.5 135.333 898.5 152C898.5 165.167 895.417 175.75 889.25 183.75C883.25 191.583 872.583 198.417 857.25 204.25C842.417 209.917 832.167 214.75 826.5 218.75C821 222.583 818.25 226.417 818.25 230.25H899.75V262H781.25V234C781.25 225.5 782.667 218.25 785.5 212.25C788.5 206.25 793.583 200.75 800.75 195.75C807.917 190.75 817.833 185.583 830.5 180.25C840 176.25 847.417 172.417 852.75 168.75C858.25 164.917 860.917 160.333 860.75 155C860.583 148.667 858.167 144.25 853.5 141.75C849 139.083 842.583 137.75 834.25 137.75C826.25 137.75 818.083 139.167 809.75 142C801.417 144.667 794.083 147.75 787.75 151.25H785.5ZM1045.64 184.5C1045.64 203.5 1043.47 218.75 1039.14 230.25C1034.81 241.75 1027.81 250.083 1018.14 255.25C1008.47 260.417 995.555 263 979.389 263C963.389 263 950.555 260.417 940.889 255.25C931.222 250.083 924.222 241.75 919.889 230.25C915.555 218.75 913.389 203.5 913.389 184.5C913.389 165.333 915.555 150 919.889 138.5C924.222 127 931.222 118.667 940.889 113.5C950.555 108.333 963.389 105.75 979.389 105.75C995.555 105.75 1008.47 108.333 1018.14 113.5C1027.81 118.667 1034.81 127 1039.14 138.5C1043.47 150 1045.64 165.333 1045.64 184.5ZM979.389 229.75C990.722 229.75 998.139 226.083 1001.64 218.75C1005.31 211.25 1007.14 199.833 1007.14 184.5C1007.14 169 1005.31 157.583 1001.64 150.25C998.139 142.917 990.722 139.25 979.389 139.25C968.222 139.25 960.805 142.917 957.139 150.25C953.639 157.583 951.889 169 951.889 184.5C951.889 199.833 953.639 211.25 957.139 218.75C960.805 226.083 968.222 229.75 979.389 229.75Z" fill="black"/>
</svg>
