<svg xmlns="http://www.w3.org/2000/svg" xmlns:xlink="http://www.w3.org/1999/xlink" width="375" zoomAndPan="magnify" viewBox="0 0 281.25 112.499997" height="150" preserveAspectRatio="xMidYMid meet" version="1.0"><defs><g/></defs><g fill="rgb(21.958923%, 34.118652%, 50.979614%)" fill-opacity="1"><g transform="translate(3.643068, 19.496858)"><g><path d="M 8.515625 -11.59375 L 8.515625 -9.8125 L 5.53125 -9.8125 L 5.53125 0 L 3.671875 0 L 3.671875 -9.8125 L 0.765625 -9.8125 L 0.765625 -11.59375 Z M 8.515625 -11.59375 "/></g></g></g><g fill="rgb(21.958923%, 34.118652%, 50.979614%)" fill-opacity="1"><g transform="translate(15.364724, 19.496858)"><g><path d="M 9.28125 -11.59375 L 9.28125 -9.8125 L 3.453125 -9.8125 L 3.453125 -6.71875 L 8.640625 -6.71875 L 8.640625 -4.9375 L 3.453125 -4.9375 L 3.453125 -1.78125 L 9.5 -1.78125 L 9.5 0 L 1.59375 0 L 1.59375 -11.59375 Z M 9.28125 -11.59375 "/></g></g></g><g fill="rgb(21.958923%, 34.118652%, 50.979614%)" fill-opacity="1"><g transform="translate(28.280787, 19.496858)"><g><path d="M 3.453125 -11.59375 L 3.453125 0 L 1.59375 0 L 1.59375 -11.59375 Z M 3.453125 -11.59375 "/></g></g></g><g fill="rgb(21.958923%, 34.118652%, 50.979614%)" fill-opacity="1"><g transform="translate(35.7663, 19.496858)"><g><path d="M 3.453125 -11.59375 L 3.453125 -1.78125 L 9.171875 -1.78125 L 9.171875 0 L 1.59375 0 L 1.59375 -11.59375 Z M 3.453125 -11.59375 "/></g></g></g><g fill="rgb(21.958923%, 34.118652%, 50.979614%)" fill-opacity="1"><g transform="translate(48.236446, 19.496858)"><g><path d="M 9.28125 -11.59375 L 9.28125 -9.8125 L 3.453125 -9.8125 L 3.453125 -6.71875 L 8.640625 -6.71875 L 8.640625 -4.9375 L 3.453125 -4.9375 L 3.453125 -1.78125 L 9.5 -1.78125 L 9.5 0 L 1.59375 0 L 1.59375 -11.59375 Z M 9.28125 -11.59375 "/></g></g></g><g fill="rgb(21.958923%, 34.118652%, 50.979614%)" fill-opacity="1"><g transform="translate(61.152509, 19.496858)"><g/></g></g><g fill="rgb(21.958923%, 34.118652%, 50.979614%)" fill-opacity="1"><g transform="translate(68.685792, 19.496858)"><g><path d="M 1.59375 -11.59375 L 4.890625 -11.59375 C 6.335938 -11.59375 7.535156 -11.304688 8.484375 -10.734375 C 9.441406 -10.160156 10.132812 -9.421875 10.5625 -8.515625 C 11 -7.617188 11.21875 -6.660156 11.21875 -5.640625 C 11.21875 -4.515625 10.957031 -3.523438 10.4375 -2.671875 C 9.914062 -1.816406 9.210938 -1.15625 8.328125 -0.6875 C 7.441406 -0.226562 6.476562 0 5.4375 0 L 1.59375 0 Z M 5.109375 -1.78125 C 5.941406 -1.78125 6.671875 -1.929688 7.296875 -2.234375 C 7.929688 -2.546875 8.425781 -3 8.78125 -3.59375 C 9.132812 -4.195312 9.3125 -4.921875 9.3125 -5.765625 C 9.3125 -6.679688 9.117188 -7.441406 8.734375 -8.046875 C 8.347656 -8.660156 7.851562 -9.109375 7.25 -9.390625 C 6.65625 -9.679688 6.035156 -9.828125 5.390625 -9.828125 L 3.453125 -9.828125 L 3.453125 -1.78125 Z M 5.109375 -1.78125 "/></g></g></g><g fill="rgb(21.958923%, 34.118652%, 50.979614%)" fill-opacity="1"><g transform="translate(83.24217, 19.496858)"><g><path d="M 9.28125 -11.59375 L 9.28125 -9.8125 L 3.453125 -9.8125 L 3.453125 -6.71875 L 8.640625 -6.71875 L 8.640625 -4.9375 L 3.453125 -4.9375 L 3.453125 -1.78125 L 9.5 -1.78125 L 9.5 0 L 1.59375 0 L 1.59375 -11.59375 Z M 9.28125 -11.59375 "/></g></g></g><g fill="rgb(21.958923%, 34.118652%, 50.979614%)" fill-opacity="1"><g transform="translate(96.158233, 19.496858)"><g><path d="M 3.453125 -11.59375 L 3.453125 0 L 1.59375 0 L 1.59375 -11.59375 Z M 3.453125 -11.59375 "/></g></g></g><g fill="rgb(21.958923%, 34.118652%, 50.979614%)" fill-opacity="1"><g transform="translate(103.643749, 19.496858)"><g><path d="M 11.828125 -11.59375 L 11.828125 0.40625 L 11.78125 0.40625 L 3.421875 -7.6875 L 3.46875 0 L 1.59375 0 L 1.59375 -11.984375 L 1.6875 -11.984375 L 10.015625 -3.796875 L 9.984375 -11.59375 Z M 11.828125 -11.59375 "/></g></g></g><g fill="rgb(21.958923%, 34.118652%, 50.979614%)" fill-opacity="1"><g transform="translate(119.521928, 19.496858)"><g><path d="M 9.28125 -11.59375 L 9.28125 -9.8125 L 3.453125 -9.8125 L 3.453125 -6.71875 L 8.640625 -6.71875 L 8.640625 -4.9375 L 3.453125 -4.9375 L 3.453125 -1.78125 L 9.5 -1.78125 L 9.5 0 L 1.59375 0 L 1.59375 -11.59375 Z M 9.28125 -11.59375 "/></g></g></g><g fill="rgb(21.958923%, 34.118652%, 50.979614%)" fill-opacity="1"><g transform="translate(132.43799, 19.496858)"><g/></g></g><g fill="rgb(21.958923%, 34.118652%, 50.979614%)" fill-opacity="1"><g transform="translate(139.971273, 19.496858)"><g><path d="M 9.28125 -11.59375 L 9.28125 -9.8125 L 3.453125 -9.8125 L 3.453125 -6.71875 L 8.640625 -6.71875 L 8.640625 -4.9375 L 3.453125 -4.9375 L 3.453125 -1.78125 L 9.5 -1.78125 L 9.5 0 L 1.59375 0 L 1.59375 -11.59375 Z M 9.28125 -11.59375 "/></g></g></g><g fill="rgb(21.958923%, 34.118652%, 50.979614%)" fill-opacity="1"><g transform="translate(152.887336, 19.496858)"><g><path d="M 13.296875 -12 L 13.296875 0 L 11.453125 0 L 11.453125 -6.703125 L 7.390625 -0.9375 L 7.359375 -0.9375 L 3.390625 -6.4375 L 3.390625 0 L 1.59375 0 L 1.59375 -12 L 1.609375 -12 L 7.390625 -3.828125 L 13.265625 -12 Z M 13.296875 -12 "/></g></g></g><g fill="rgb(21.958923%, 34.118652%, 50.979614%)" fill-opacity="1"><g transform="translate(170.214728, 19.496858)"><g><path d="M 4.875 -11.59375 C 6.1875 -11.59375 7.210938 -11.257812 7.953125 -10.59375 C 8.703125 -9.9375 9.078125 -9.023438 9.078125 -7.859375 C 9.078125 -7.191406 8.941406 -6.566406 8.671875 -5.984375 C 8.410156 -5.410156 7.984375 -4.941406 7.390625 -4.578125 C 6.804688 -4.210938 6.050781 -4.03125 5.125 -4.03125 L 3.453125 -4.03125 L 3.453125 0 L 1.59375 0 L 1.59375 -11.59375 Z M 5.125 -5.8125 C 5.632812 -5.8125 6.046875 -5.921875 6.359375 -6.140625 C 6.671875 -6.359375 6.894531 -6.625 7.03125 -6.9375 C 7.164062 -7.25 7.234375 -7.546875 7.234375 -7.828125 C 7.234375 -8.316406 7.078125 -8.769531 6.765625 -9.1875 C 6.453125 -9.601562 5.921875 -9.8125 5.171875 -9.8125 L 3.453125 -9.8125 L 3.453125 -5.8125 Z M 5.125 -5.8125 "/></g></g></g><g fill="rgb(21.958923%, 34.118652%, 50.979614%)" fill-opacity="1"><g transform="translate(182.382299, 19.496858)"><g><path d="M 8.625 -11.59375 L 8.625 -9.8125 L 3.453125 -9.8125 L 3.453125 -6.546875 L 7.953125 -6.546875 L 7.953125 -4.78125 L 3.453125 -4.78125 L 3.453125 0 L 1.59375 0 L 1.59375 -11.59375 Z M 8.625 -11.59375 "/></g></g></g><g fill="rgb(21.958923%, 34.118652%, 50.979614%)" fill-opacity="1"><g transform="translate(194.26321, 19.496858)"><g><path d="M 9.28125 -11.59375 L 9.28125 -9.8125 L 3.453125 -9.8125 L 3.453125 -6.71875 L 8.640625 -6.71875 L 8.640625 -4.9375 L 3.453125 -4.9375 L 3.453125 -1.78125 L 9.5 -1.78125 L 9.5 0 L 1.59375 0 L 1.59375 -11.59375 Z M 9.28125 -11.59375 "/></g></g></g><g fill="rgb(21.958923%, 34.118652%, 50.979614%)" fill-opacity="1"><g transform="translate(207.179272, 19.496858)"><g><path d="M 11.015625 0 L 9.15625 0 L 9.15625 -4.9375 L 3.453125 -4.9375 L 3.453125 0 L 1.59375 0 L 1.59375 -11.59375 L 3.453125 -11.59375 L 3.453125 -6.703125 L 9.15625 -6.703125 L 9.15625 -11.59375 L 11.015625 -11.59375 Z M 11.015625 0 "/></g></g></g><g fill="rgb(21.958923%, 34.118652%, 50.979614%)" fill-opacity="1"><g transform="translate(222.229341, 19.496858)"><g><path d="M 3.453125 -11.59375 L 3.453125 -1.78125 L 9.171875 -1.78125 L 9.171875 0 L 1.59375 0 L 1.59375 -11.59375 Z M 3.453125 -11.59375 "/></g></g></g><g fill="rgb(21.958923%, 34.118652%, 50.979614%)" fill-opacity="1"><g transform="translate(234.699498, 19.496858)"><g><path d="M 3.265625 -4.171875 C 3.265625 -3.722656 3.378906 -3.304688 3.609375 -2.921875 C 3.847656 -2.546875 4.164062 -2.242188 4.5625 -2.015625 C 4.96875 -1.785156 5.410156 -1.671875 5.890625 -1.671875 C 6.390625 -1.671875 6.84375 -1.78125 7.25 -2 C 7.65625 -2.226562 7.972656 -2.53125 8.203125 -2.90625 C 8.441406 -3.289062 8.5625 -3.710938 8.5625 -4.171875 L 8.5625 -11.59375 L 10.390625 -11.59375 L 10.390625 -4.125 C 10.390625 -3.289062 10.191406 -2.550781 9.796875 -1.90625 C 9.398438 -1.269531 8.859375 -0.769531 8.171875 -0.40625 C 7.484375 -0.0507812 6.722656 0.125 5.890625 0.125 C 5.066406 0.125 4.3125 -0.0507812 3.625 -0.40625 C 2.9375 -0.769531 2.394531 -1.269531 2 -1.90625 C 1.613281 -2.550781 1.421875 -3.289062 1.421875 -4.125 L 1.421875 -11.59375 L 3.265625 -11.59375 Z M 3.265625 -4.171875 "/></g></g></g><g fill="rgb(21.958923%, 34.118652%, 50.979614%)" fill-opacity="1"><g transform="translate(248.937373, 19.496858)"><g><path d="M 11.828125 -11.59375 L 11.828125 0.40625 L 11.78125 0.40625 L 3.421875 -7.6875 L 3.46875 0 L 1.59375 0 L 1.59375 -11.984375 L 1.6875 -11.984375 L 10.015625 -3.796875 L 9.984375 -11.59375 Z M 11.828125 -11.59375 "/></g></g></g><g fill="rgb(21.958923%, 34.118652%, 50.979614%)" fill-opacity="1"><g transform="translate(264.815564, 19.496858)"><g><path d="M 10.8125 -1.0625 C 10.488281 -0.769531 9.929688 -0.5 9.140625 -0.25 C 8.347656 0 7.625 0.125 6.96875 0.125 C 5.75 0.125 4.675781 -0.117188 3.75 -0.609375 C 2.832031 -1.097656 2.125 -1.769531 1.625 -2.625 C 1.125 -3.476562 0.875 -4.445312 0.875 -5.53125 C 0.875 -6.832031 1.140625 -7.945312 1.671875 -8.875 C 2.210938 -9.8125 2.9375 -10.519531 3.84375 -11 C 4.75 -11.476562 5.742188 -11.71875 6.828125 -11.71875 C 7.492188 -11.71875 8.125 -11.640625 8.71875 -11.484375 C 9.320312 -11.328125 9.851562 -11.125 10.3125 -10.875 L 9.71875 -9.15625 C 9.394531 -9.34375 8.96875 -9.503906 8.4375 -9.640625 C 7.914062 -9.785156 7.457031 -9.859375 7.0625 -9.859375 C 5.738281 -9.859375 4.691406 -9.488281 3.921875 -8.75 C 3.160156 -8.019531 2.78125 -7 2.78125 -5.6875 C 2.78125 -4.894531 2.957031 -4.195312 3.3125 -3.59375 C 3.675781 -3 4.175781 -2.535156 4.8125 -2.203125 C 5.457031 -1.878906 6.191406 -1.71875 7.015625 -1.71875 C 7.390625 -1.71875 7.742188 -1.75 8.078125 -1.8125 C 8.421875 -1.882812 8.710938 -1.988281 8.953125 -2.125 L 8.953125 -4.046875 L 6.765625 -4.046875 L 6.765625 -5.828125 L 10.8125 -5.828125 Z M 10.8125 -1.0625 "/></g></g></g><g fill="rgb(21.958923%, 34.118652%, 50.979614%)" fill-opacity="1"><g transform="translate(141.464114, 40.403937)"><g/></g></g><g fill="rgb(21.958923%, 34.118652%, 50.979614%)" fill-opacity="1"><g transform="translate(3.211393, 61.311015)"><g><path d="M 10.140625 -1 C 9.835938 -0.71875 9.316406 -0.457031 8.578125 -0.21875 C 7.835938 0.0078125 7.160156 0.125 6.546875 0.125 C 5.398438 0.125 4.390625 -0.101562 3.515625 -0.5625 C 2.648438 -1.019531 1.984375 -1.648438 1.515625 -2.453125 C 1.054688 -3.253906 0.828125 -4.164062 0.828125 -5.1875 C 0.828125 -6.40625 1.078125 -7.453125 1.578125 -8.328125 C 2.078125 -9.210938 2.753906 -9.878906 3.609375 -10.328125 C 4.460938 -10.773438 5.394531 -11 6.40625 -11 C 7.03125 -11 7.625 -10.925781 8.1875 -10.78125 C 8.75 -10.632812 9.242188 -10.441406 9.671875 -10.203125 L 9.109375 -8.59375 C 8.804688 -8.769531 8.410156 -8.921875 7.921875 -9.046875 C 7.429688 -9.179688 7 -9.25 6.625 -9.25 C 5.382812 -9.25 4.40625 -8.90625 3.6875 -8.21875 C 2.96875 -7.53125 2.609375 -6.566406 2.609375 -5.328125 C 2.609375 -4.597656 2.773438 -3.953125 3.109375 -3.390625 C 3.441406 -2.828125 3.910156 -2.390625 4.515625 -2.078125 C 5.117188 -1.765625 5.8125 -1.609375 6.59375 -1.609375 C 6.9375 -1.609375 7.265625 -1.640625 7.578125 -1.703125 C 7.898438 -1.773438 8.171875 -1.867188 8.390625 -1.984375 L 8.390625 -3.796875 L 6.34375 -3.796875 L 6.34375 -5.46875 L 10.140625 -5.46875 Z M 10.140625 -1 "/></g></g></g><g fill="rgb(21.958923%, 34.118652%, 50.979614%)" fill-opacity="1"><g transform="translate(16.786045, 61.311015)"><g><path d="M 8.703125 -10.875 L 8.703125 -9.203125 L 3.234375 -9.203125 L 3.234375 -6.296875 L 8.109375 -6.296875 L 8.109375 -4.625 L 3.234375 -4.625 L 3.234375 -1.671875 L 8.921875 -1.671875 L 8.921875 0 L 1.5 0 L 1.5 -10.875 Z M 8.703125 -10.875 "/></g></g></g><g fill="rgb(21.958923%, 34.118652%, 50.979614%)" fill-opacity="1"><g transform="translate(28.897207, 61.311015)"><g><path d="M 10.140625 -1 C 9.835938 -0.71875 9.316406 -0.457031 8.578125 -0.21875 C 7.835938 0.0078125 7.160156 0.125 6.546875 0.125 C 5.398438 0.125 4.390625 -0.101562 3.515625 -0.5625 C 2.648438 -1.019531 1.984375 -1.648438 1.515625 -2.453125 C 1.054688 -3.253906 0.828125 -4.164062 0.828125 -5.1875 C 0.828125 -6.40625 1.078125 -7.453125 1.578125 -8.328125 C 2.078125 -9.210938 2.753906 -9.878906 3.609375 -10.328125 C 4.460938 -10.773438 5.394531 -11 6.40625 -11 C 7.03125 -11 7.625 -10.925781 8.1875 -10.78125 C 8.75 -10.632812 9.242188 -10.441406 9.671875 -10.203125 L 9.109375 -8.59375 C 8.804688 -8.769531 8.410156 -8.921875 7.921875 -9.046875 C 7.429688 -9.179688 7 -9.25 6.625 -9.25 C 5.382812 -9.25 4.40625 -8.90625 3.6875 -8.21875 C 2.96875 -7.53125 2.609375 -6.566406 2.609375 -5.328125 C 2.609375 -4.597656 2.773438 -3.953125 3.109375 -3.390625 C 3.441406 -2.828125 3.910156 -2.390625 4.515625 -2.078125 C 5.117188 -1.765625 5.8125 -1.609375 6.59375 -1.609375 C 6.9375 -1.609375 7.265625 -1.640625 7.578125 -1.703125 C 7.898438 -1.773438 8.171875 -1.867188 8.390625 -1.984375 L 8.390625 -3.796875 L 6.34375 -3.796875 L 6.34375 -5.46875 L 10.140625 -5.46875 Z M 10.140625 -1 "/></g></g></g><g fill="rgb(21.958923%, 34.118652%, 50.979614%)" fill-opacity="1"><g transform="translate(42.47186, 61.311015)"><g><path d="M 8.703125 -10.875 L 8.703125 -9.203125 L 3.234375 -9.203125 L 3.234375 -6.296875 L 8.109375 -6.296875 L 8.109375 -4.625 L 3.234375 -4.625 L 3.234375 -1.671875 L 8.921875 -1.671875 L 8.921875 0 L 1.5 0 L 1.5 -10.875 Z M 8.703125 -10.875 "/></g></g></g><g fill="rgb(21.958923%, 34.118652%, 50.979614%)" fill-opacity="1"><g transform="translate(54.583022, 61.311015)"><g><path d="M 11.09375 -10.875 L 11.09375 0.390625 L 11.046875 0.390625 L 3.21875 -7.21875 L 3.25 0 L 1.5 0 L 1.5 -11.25 L 1.578125 -11.25 L 9.390625 -3.5625 L 9.359375 -10.875 Z M 11.09375 -10.875 "/></g></g></g><g fill="rgb(21.958923%, 34.118652%, 50.979614%)" fill-opacity="1"><g transform="translate(69.471838, 61.311015)"><g/></g></g><g fill="rgb(21.958923%, 34.118652%, 50.979614%)" fill-opacity="1"><g transform="translate(76.535438, 61.311015)"><g><path d="M 1.5 -10.875 L 4.578125 -10.875 C 5.941406 -10.875 7.070312 -10.601562 7.96875 -10.0625 C 8.863281 -9.53125 9.515625 -8.835938 9.921875 -7.984375 C 10.328125 -7.140625 10.53125 -6.238281 10.53125 -5.28125 C 10.53125 -4.226562 10.28125 -3.300781 9.78125 -2.5 C 9.289062 -1.695312 8.632812 -1.078125 7.8125 -0.640625 C 6.988281 -0.210938 6.085938 0 5.109375 0 L 1.5 0 Z M 4.796875 -1.671875 C 5.566406 -1.671875 6.25 -1.816406 6.84375 -2.109375 C 7.4375 -2.398438 7.898438 -2.828125 8.234375 -3.390625 C 8.566406 -3.953125 8.734375 -4.625 8.734375 -5.40625 C 8.734375 -6.257812 8.550781 -6.972656 8.1875 -7.546875 C 7.820312 -8.117188 7.359375 -8.539062 6.796875 -8.8125 C 6.234375 -9.082031 5.65625 -9.21875 5.0625 -9.21875 L 3.234375 -9.21875 L 3.234375 -1.671875 Z M 4.796875 -1.671875 "/></g></g></g><g fill="rgb(21.958923%, 34.118652%, 50.979614%)" fill-opacity="1"><g transform="translate(90.184761, 61.311015)"><g><path d="M 7.078125 -2.546875 L 3.125 -2.546875 L 2.078125 0 L 0.359375 0 L 5.171875 -11.328125 L 5.265625 -11.328125 L 10.078125 0 L 8.078125 0 Z M 6.5 -4.046875 L 5.140625 -7.484375 L 3.734375 -4.046875 Z M 6.5 -4.046875 "/></g></g></g><g fill="rgb(21.958923%, 34.118652%, 50.979614%)" fill-opacity="1"><g transform="translate(102.908201, 61.311015)"><g><path d="M 7.203125 -8.65625 C 6.265625 -9.144531 5.429688 -9.390625 4.703125 -9.390625 C 4.171875 -9.390625 3.742188 -9.269531 3.421875 -9.03125 C 3.109375 -8.789062 2.953125 -8.460938 2.953125 -8.046875 C 2.953125 -7.640625 3.148438 -7.300781 3.546875 -7.03125 C 3.941406 -6.757812 4.492188 -6.488281 5.203125 -6.21875 C 5.734375 -6.03125 6.191406 -5.8125 6.578125 -5.5625 C 6.960938 -5.320312 7.28125 -4.988281 7.53125 -4.5625 C 7.78125 -4.144531 7.90625 -3.617188 7.90625 -2.984375 C 7.90625 -2.410156 7.757812 -1.890625 7.46875 -1.421875 C 7.175781 -0.953125 6.753906 -0.578125 6.203125 -0.296875 C 5.660156 -0.015625 5.015625 0.125 4.265625 0.125 C 3.609375 0.125 2.960938 0.0195312 2.328125 -0.1875 C 1.691406 -0.394531 1.125 -0.675781 0.625 -1.03125 L 1.40625 -2.390625 C 1.769531 -2.109375 2.203125 -1.875 2.703125 -1.6875 C 3.210938 -1.507812 3.679688 -1.421875 4.109375 -1.421875 C 4.640625 -1.421875 5.101562 -1.546875 5.5 -1.796875 C 5.894531 -2.054688 6.09375 -2.445312 6.09375 -2.96875 C 6.09375 -3.382812 5.925781 -3.734375 5.59375 -4.015625 C 5.257812 -4.296875 4.796875 -4.550781 4.203125 -4.78125 C 3.578125 -5.007812 3.0625 -5.234375 2.65625 -5.453125 C 2.25 -5.679688 1.898438 -5.992188 1.609375 -6.390625 C 1.316406 -6.796875 1.171875 -7.304688 1.171875 -7.921875 C 1.171875 -8.804688 1.46875 -9.519531 2.0625 -10.0625 C 2.664062 -10.601562 3.460938 -10.894531 4.453125 -10.9375 C 5.171875 -10.9375 5.800781 -10.851562 6.34375 -10.6875 C 6.882812 -10.519531 7.390625 -10.289062 7.859375 -10 Z M 7.203125 -8.65625 "/></g></g></g><g fill="rgb(21.958923%, 34.118652%, 50.979614%)" fill-opacity="1"><g transform="translate(113.884403, 61.311015)"><g/></g></g><g fill="rgb(21.958923%, 34.118652%, 50.979614%)" fill-opacity="1"><g transform="translate(120.948003, 61.311015)"><g><path d="M 7.671875 -1.671875 L 7.671875 0 L 0.8125 0 L 1.34375 -0.53125 C 2.332031 -1.519531 3.109375 -2.328125 3.671875 -2.953125 C 4.234375 -3.578125 4.695312 -4.203125 5.0625 -4.828125 C 5.4375 -5.460938 5.625 -6.0625 5.625 -6.625 C 5.625 -7.164062 5.457031 -7.582031 5.125 -7.875 C 4.800781 -8.164062 4.394531 -8.3125 3.90625 -8.3125 C 3.382812 -8.3125 2.976562 -8.160156 2.6875 -7.859375 C 2.394531 -7.554688 2.25 -7.222656 2.25 -6.859375 C 2.25 -6.242188 2.445312 -5.726562 2.84375 -5.3125 L 1.78125 -4.34375 C 1.414062 -4.539062 1.117188 -4.894531 0.890625 -5.40625 C 0.671875 -5.925781 0.5625 -6.394531 0.5625 -6.8125 C 0.5625 -7.363281 0.707031 -7.878906 1 -8.359375 C 1.289062 -8.847656 1.710938 -9.238281 2.265625 -9.53125 C 2.816406 -9.832031 3.46875 -9.984375 4.21875 -9.984375 C 4.84375 -9.984375 5.398438 -9.832031 5.890625 -9.53125 C 6.378906 -9.238281 6.757812 -8.847656 7.03125 -8.359375 C 7.300781 -7.878906 7.4375 -7.351562 7.4375 -6.78125 C 7.4375 -6.21875 7.304688 -5.65625 7.046875 -5.09375 C 6.785156 -4.53125 6.472656 -4.007812 6.109375 -3.53125 C 5.753906 -3.0625 5.242188 -2.441406 4.578125 -1.671875 Z M 7.671875 -1.671875 "/></g></g></g><g fill="rgb(21.958923%, 34.118652%, 50.979614%)" fill-opacity="1"><g transform="translate(131.595675, 61.311015)"><g><path d="M 4.671875 0.03125 C 3.878906 0.0390625 3.164062 -0.148438 2.53125 -0.546875 C 1.90625 -0.941406 1.410156 -1.515625 1.046875 -2.265625 C 0.691406 -3.023438 0.515625 -3.925781 0.515625 -4.96875 C 0.515625 -6.664062 0.882812 -7.925781 1.625 -8.75 C 2.375 -9.570312 3.390625 -9.976562 4.671875 -9.96875 C 5.472656 -9.976562 6.1875 -9.785156 6.8125 -9.390625 C 7.4375 -8.992188 7.925781 -8.421875 8.28125 -7.671875 C 8.632812 -6.921875 8.8125 -6.019531 8.8125 -4.96875 C 8.8125 -3.894531 8.628906 -2.984375 8.265625 -2.234375 C 7.910156 -1.484375 7.421875 -0.914062 6.796875 -0.53125 C 6.179688 -0.144531 5.472656 0.0390625 4.671875 0.03125 Z M 4.65625 -1.625 C 5.445312 -1.625 6.035156 -1.929688 6.421875 -2.546875 C 6.804688 -3.160156 7 -3.984375 7 -5.015625 C 7 -6.023438 6.804688 -6.828125 6.421875 -7.421875 C 6.035156 -8.015625 5.445312 -8.304688 4.65625 -8.296875 C 3.882812 -8.304688 3.300781 -8.007812 2.90625 -7.40625 C 2.519531 -6.800781 2.328125 -5.988281 2.328125 -4.96875 C 2.328125 -3.957031 2.519531 -3.144531 2.90625 -2.53125 C 3.300781 -1.925781 3.882812 -1.625 4.65625 -1.625 Z M 4.65625 -1.625 "/></g></g></g><g fill="rgb(21.958923%, 34.118652%, 50.979614%)" fill-opacity="1"><g transform="translate(143.214024, 61.311015)"><g><path d="M 3.0625 -3.90625 C 3.0625 -3.488281 3.171875 -3.097656 3.390625 -2.734375 C 3.609375 -2.378906 3.90625 -2.09375 4.28125 -1.875 C 4.664062 -1.664062 5.082031 -1.5625 5.53125 -1.5625 C 6 -1.5625 6.421875 -1.664062 6.796875 -1.875 C 7.179688 -2.09375 7.484375 -2.378906 7.703125 -2.734375 C 7.921875 -3.085938 8.03125 -3.476562 8.03125 -3.90625 L 8.03125 -10.875 L 9.75 -10.875 L 9.75 -3.875 C 9.75 -3.09375 9.5625 -2.398438 9.1875 -1.796875 C 8.820312 -1.191406 8.3125 -0.71875 7.65625 -0.375 C 7.007812 -0.0390625 6.300781 0.125 5.53125 0.125 C 4.75 0.125 4.035156 -0.0390625 3.390625 -0.375 C 2.753906 -0.71875 2.25 -1.191406 1.875 -1.796875 C 1.507812 -2.398438 1.328125 -3.09375 1.328125 -3.875 L 1.328125 -10.875 L 3.0625 -10.875 Z M 3.0625 -3.90625 "/></g></g></g><g fill="rgb(21.958923%, 34.118652%, 50.979614%)" fill-opacity="1"><g transform="translate(156.564679, 61.311015)"><g><path d="M 10.34375 0 L 8.59375 0 L 8.59375 -4.625 L 3.234375 -4.625 L 3.234375 0 L 1.5 0 L 1.5 -10.875 L 3.234375 -10.875 L 3.234375 -6.28125 L 8.59375 -6.28125 L 8.59375 -10.875 L 10.34375 -10.875 Z M 10.34375 0 "/></g></g></g><g fill="rgb(21.958923%, 34.118652%, 50.979614%)" fill-opacity="1"><g transform="translate(170.676941, 61.311015)"><g><path d="M 7.4375 0 L 4.984375 -3.78125 L 3.234375 -3.78125 L 3.234375 0 L 1.5 0 L 1.5 -10.875 L 4.5625 -10.875 C 5.769531 -10.875 6.738281 -10.5625 7.46875 -9.9375 C 8.207031 -9.320312 8.578125 -8.46875 8.578125 -7.375 C 8.578125 -6.707031 8.429688 -6.085938 8.140625 -5.515625 C 7.859375 -4.941406 7.414062 -4.503906 6.8125 -4.203125 L 9.453125 0 Z M 3.234375 -5.453125 L 4.796875 -5.453125 C 5.492188 -5.453125 6 -5.644531 6.3125 -6.03125 C 6.625 -6.414062 6.78125 -6.84375 6.78125 -7.3125 C 6.78125 -7.59375 6.71875 -7.875 6.59375 -8.15625 C 6.476562 -8.445312 6.273438 -8.691406 5.984375 -8.890625 C 5.703125 -9.097656 5.328125 -9.203125 4.859375 -9.203125 L 3.234375 -9.203125 Z M 3.234375 -5.453125 "/></g></g></g><g fill="rgb(21.958923%, 34.118652%, 50.979614%)" fill-opacity="1"><g transform="translate(182.96731, 61.311015)"><g/></g></g><g fill="rgb(21.958923%, 34.118652%, 50.979614%)" fill-opacity="1"><g transform="translate(190.030909, 61.311015)"><g><path d="M 1.5 -10.875 L 4.578125 -10.875 C 5.941406 -10.875 7.070312 -10.601562 7.96875 -10.0625 C 8.863281 -9.53125 9.515625 -8.835938 9.921875 -7.984375 C 10.328125 -7.140625 10.53125 -6.238281 10.53125 -5.28125 C 10.53125 -4.226562 10.28125 -3.300781 9.78125 -2.5 C 9.289062 -1.695312 8.632812 -1.078125 7.8125 -0.640625 C 6.988281 -0.210938 6.085938 0 5.109375 0 L 1.5 0 Z M 4.796875 -1.671875 C 5.566406 -1.671875 6.25 -1.816406 6.84375 -2.109375 C 7.4375 -2.398438 7.898438 -2.828125 8.234375 -3.390625 C 8.566406 -3.953125 8.734375 -4.625 8.734375 -5.40625 C 8.734375 -6.257812 8.550781 -6.972656 8.1875 -7.546875 C 7.820312 -8.117188 7.359375 -8.539062 6.796875 -8.8125 C 6.234375 -9.082031 5.65625 -9.21875 5.0625 -9.21875 L 3.234375 -9.21875 L 3.234375 -1.671875 Z M 4.796875 -1.671875 "/></g></g></g><g fill="rgb(21.958923%, 34.118652%, 50.979614%)" fill-opacity="1"><g transform="translate(203.680233, 61.311015)"><g><path d="M 3.234375 -10.875 L 3.234375 0 L 1.5 0 L 1.5 -10.875 Z M 3.234375 -10.875 "/></g></g></g><g fill="rgb(21.958923%, 34.118652%, 50.979614%)" fill-opacity="1"><g transform="translate(210.699033, 61.311015)"><g><path d="M 3.234375 -10.875 L 3.234375 -1.671875 L 8.609375 -1.671875 L 8.609375 0 L 1.5 0 L 1.5 -10.875 Z M 3.234375 -10.875 "/></g></g></g><g fill="rgb(21.958923%, 34.118652%, 50.979614%)" fill-opacity="1"><g transform="translate(222.392066, 61.311015)"><g><path d="M 8.703125 -10.875 L 8.703125 -9.203125 L 3.234375 -9.203125 L 3.234375 -6.296875 L 8.109375 -6.296875 L 8.109375 -4.625 L 3.234375 -4.625 L 3.234375 -1.671875 L 8.921875 -1.671875 L 8.921875 0 L 1.5 0 L 1.5 -10.875 Z M 8.703125 -10.875 "/></g></g></g><g fill="rgb(21.958923%, 34.118652%, 50.979614%)" fill-opacity="1"><g transform="translate(234.503238, 61.311015)"><g><path d="M 12.46875 -11.265625 L 12.46875 0 L 10.734375 0 L 10.734375 -6.28125 L 6.9375 -0.875 L 6.90625 -0.875 L 3.1875 -6.03125 L 3.1875 0 L 1.5 0 L 1.5 -11.265625 L 1.515625 -11.265625 L 6.9375 -3.578125 L 12.4375 -11.265625 Z M 12.46875 -11.265625 "/></g></g></g><g fill="rgb(21.958923%, 34.118652%, 50.979614%)" fill-opacity="1"><g transform="translate(250.751009, 61.311015)"><g><path d="M 12.46875 -11.265625 L 12.46875 0 L 10.734375 0 L 10.734375 -6.28125 L 6.9375 -0.875 L 6.90625 -0.875 L 3.1875 -6.03125 L 3.1875 0 L 1.5 0 L 1.5 -11.265625 L 1.515625 -11.265625 L 6.9375 -3.578125 L 12.4375 -11.265625 Z M 12.46875 -11.265625 "/></g></g></g><g fill="rgb(21.958923%, 34.118652%, 50.979614%)" fill-opacity="1"><g transform="translate(266.99878, 61.311015)"><g><path d="M 7.078125 -2.546875 L 3.125 -2.546875 L 2.078125 0 L 0.359375 0 L 5.171875 -11.328125 L 5.265625 -11.328125 L 10.078125 0 L 8.078125 0 Z M 6.5 -4.046875 L 5.140625 -7.484375 L 3.734375 -4.046875 Z M 6.5 -4.046875 "/></g></g></g><g fill="rgb(21.958923%, 34.118652%, 50.979614%)" fill-opacity="1"><g transform="translate(141.464114, 82.218093)"><g/></g></g><g fill="rgb(21.958923%, 34.118652%, 50.979614%)" fill-opacity="1"><g transform="translate(50.217318, 104.618534)"><g><path d="M 9.171875 -12.3125 L 9.171875 -10.421875 L 3.671875 -10.421875 L 3.671875 -6.953125 L 8.453125 -6.953125 L 8.453125 -5.078125 L 3.671875 -5.078125 L 3.671875 0 L 1.6875 0 L 1.6875 -12.3125 Z M 9.171875 -12.3125 "/></g></g></g><g fill="rgb(21.958923%, 34.118652%, 50.979614%)" fill-opacity="1"><g transform="translate(62.838579, 104.618534)"><g><path d="M 3.46875 -4.4375 C 3.46875 -3.957031 3.59375 -3.515625 3.84375 -3.109375 C 4.09375 -2.703125 4.429688 -2.378906 4.859375 -2.140625 C 5.285156 -1.898438 5.753906 -1.78125 6.265625 -1.78125 C 6.796875 -1.78125 7.273438 -1.894531 7.703125 -2.125 C 8.140625 -2.363281 8.484375 -2.6875 8.734375 -3.09375 C 8.984375 -3.5 9.109375 -3.945312 9.109375 -4.4375 L 9.109375 -12.3125 L 11.046875 -12.3125 L 11.046875 -4.375 C 11.046875 -3.5 10.832031 -2.71875 10.40625 -2.03125 C 9.988281 -1.351562 9.410156 -0.820312 8.671875 -0.4375 C 7.941406 -0.0507812 7.140625 0.140625 6.265625 0.140625 C 5.378906 0.140625 4.570312 -0.0507812 3.84375 -0.4375 C 3.125 -0.820312 2.550781 -1.351562 2.125 -2.03125 C 1.707031 -2.71875 1.5 -3.5 1.5 -4.375 L 1.5 -12.3125 L 3.46875 -12.3125 Z M 3.75 -14.390625 C 3.75 -14.679688 3.851562 -14.925781 4.0625 -15.125 C 4.269531 -15.320312 4.507812 -15.421875 4.78125 -15.421875 C 5.03125 -15.421875 5.257812 -15.316406 5.46875 -15.109375 C 5.675781 -14.910156 5.78125 -14.671875 5.78125 -14.390625 C 5.78125 -14.097656 5.675781 -13.851562 5.46875 -13.65625 C 5.257812 -13.457031 5.03125 -13.359375 4.78125 -13.359375 C 4.507812 -13.359375 4.269531 -13.457031 4.0625 -13.65625 C 3.851562 -13.851562 3.75 -14.097656 3.75 -14.390625 Z M 7 -14.390625 C 7 -14.679688 7.101562 -14.925781 7.3125 -15.125 C 7.519531 -15.320312 7.757812 -15.421875 8.03125 -15.421875 C 8.28125 -15.421875 8.507812 -15.316406 8.71875 -15.109375 C 8.925781 -14.910156 9.03125 -14.671875 9.03125 -14.390625 C 9.03125 -14.097656 8.925781 -13.851562 8.71875 -13.65625 C 8.507812 -13.457031 8.28125 -13.359375 8.03125 -13.359375 C 7.757812 -13.359375 7.519531 -13.457031 7.3125 -13.65625 C 7.101562 -13.851562 7 -14.097656 7 -14.390625 Z M 7 -14.390625 "/></g></g></g><g fill="rgb(21.958923%, 34.118652%, 50.979614%)" fill-opacity="1"><g transform="translate(77.963539, 104.618534)"><g><path d="M 8.421875 0 L 5.65625 -4.28125 L 3.671875 -4.28125 L 3.671875 0 L 1.6875 0 L 1.6875 -12.3125 L 5.15625 -12.3125 C 6.53125 -12.3125 7.632812 -11.960938 8.46875 -11.265625 C 9.300781 -10.566406 9.71875 -9.597656 9.71875 -8.359375 C 9.71875 -7.597656 9.554688 -6.894531 9.234375 -6.25 C 8.910156 -5.601562 8.40625 -5.101562 7.71875 -4.75 L 10.71875 0 Z M 3.671875 -6.171875 L 5.4375 -6.171875 C 6.21875 -6.171875 6.785156 -6.390625 7.140625 -6.828125 C 7.503906 -7.265625 7.6875 -7.753906 7.6875 -8.296875 C 7.6875 -8.609375 7.617188 -8.925781 7.484375 -9.25 C 7.347656 -9.570312 7.113281 -9.847656 6.78125 -10.078125 C 6.457031 -10.304688 6.03125 -10.421875 5.5 -10.421875 L 3.671875 -10.421875 Z M 3.671875 -6.171875 "/></g></g></g><g fill="rgb(21.958923%, 34.118652%, 50.979614%)" fill-opacity="1"><g transform="translate(91.887402, 104.618534)"><g/></g></g><g fill="rgb(21.958923%, 34.118652%, 50.979614%)" fill-opacity="1"><g transform="translate(99.890326, 104.618534)"><g><path d="M 1.6875 -12.3125 L 5.1875 -12.3125 C 6.738281 -12.3125 8.019531 -12.003906 9.03125 -11.390625 C 10.039062 -10.785156 10.773438 -10.003906 11.234375 -9.046875 C 11.703125 -8.085938 11.9375 -7.066406 11.9375 -5.984375 C 11.9375 -4.796875 11.65625 -3.742188 11.09375 -2.828125 C 10.53125 -1.921875 9.78125 -1.222656 8.84375 -0.734375 C 7.914062 -0.242188 6.894531 0 5.78125 0 L 1.6875 0 Z M 5.4375 -1.890625 C 6.3125 -1.890625 7.082031 -2.050781 7.75 -2.375 C 8.425781 -2.707031 8.953125 -3.191406 9.328125 -3.828125 C 9.710938 -4.460938 9.90625 -5.226562 9.90625 -6.125 C 9.90625 -7.09375 9.695312 -7.898438 9.28125 -8.546875 C 8.863281 -9.203125 8.335938 -9.679688 7.703125 -9.984375 C 7.066406 -10.285156 6.410156 -10.4375 5.734375 -10.4375 L 3.671875 -10.4375 L 3.671875 -1.890625 Z M 5.4375 -1.890625 "/></g></g></g><g fill="rgb(21.958923%, 34.118652%, 50.979614%)" fill-opacity="1"><g transform="translate(115.353624, 104.618534)"><g><path d="M 3.671875 -12.3125 L 3.671875 0 L 1.6875 0 L 1.6875 -12.3125 Z M 3.671875 -12.3125 "/></g></g></g><g fill="rgb(21.958923%, 34.118652%, 50.979614%)" fill-opacity="1"><g transform="translate(123.305798, 104.618534)"><g><path d="M 3.671875 -12.3125 L 3.671875 -1.890625 L 9.75 -1.890625 L 9.75 0 L 1.6875 0 L 1.6875 -12.3125 Z M 3.671875 -12.3125 "/></g></g></g><g fill="rgb(21.958923%, 34.118652%, 50.979614%)" fill-opacity="1"><g transform="translate(136.552978, 104.618534)"><g><path d="M 9.859375 -12.3125 L 9.859375 -10.421875 L 3.671875 -10.421875 L 3.671875 -7.140625 L 9.1875 -7.140625 L 9.1875 -5.25 L 3.671875 -5.25 L 3.671875 -1.890625 L 10.109375 -1.890625 L 10.109375 0 L 1.6875 0 L 1.6875 -12.3125 Z M 9.859375 -12.3125 "/></g></g></g><g fill="rgb(21.958923%, 34.118652%, 50.979614%)" fill-opacity="1"><g transform="translate(150.273829, 104.618534)"><g><path d="M 14.125 -12.765625 L 14.125 0 L 12.171875 0 L 12.171875 -7.125 L 7.859375 -1 L 7.8125 -1 L 3.609375 -6.84375 L 3.609375 0 L 1.6875 0 L 1.6875 -12.765625 L 1.703125 -12.765625 L 7.859375 -4.0625 L 14.09375 -12.765625 Z M 14.125 -12.765625 "/></g></g></g><g fill="rgb(21.958923%, 34.118652%, 50.979614%)" fill-opacity="1"><g transform="translate(168.680682, 104.618534)"><g><path d="M 14.125 -12.765625 L 14.125 0 L 12.171875 0 L 12.171875 -7.125 L 7.859375 -1 L 7.8125 -1 L 3.609375 -6.84375 L 3.609375 0 L 1.6875 0 L 1.6875 -12.765625 L 1.703125 -12.765625 L 7.859375 -4.0625 L 14.09375 -12.765625 Z M 14.125 -12.765625 "/></g></g></g><g fill="rgb(21.958923%, 34.118652%, 50.979614%)" fill-opacity="1"><g transform="translate(187.087535, 104.618534)"><g><path d="M 8.015625 -2.890625 L 3.53125 -2.890625 L 2.359375 0 L 0.40625 0 L 5.859375 -12.828125 L 5.96875 -12.828125 L 11.421875 0 L 9.15625 0 Z M 7.359375 -4.578125 L 5.828125 -8.484375 L 4.234375 -4.578125 Z M 7.359375 -4.578125 "/></g></g></g><g fill="rgb(0%, 0%, 0%)" fill-opacity="1"><g transform="translate(201.501963, 104.618534)"><g><path d="M 8.703125 -1.890625 L 8.703125 0 L 0.90625 0 L 1.515625 -0.609375 C 2.640625 -1.722656 3.519531 -2.632812 4.15625 -3.34375 C 4.789062 -4.050781 5.316406 -4.757812 5.734375 -5.46875 C 6.160156 -6.1875 6.375 -6.867188 6.375 -7.515625 C 6.375 -8.117188 6.1875 -8.582031 5.8125 -8.90625 C 5.445312 -9.238281 4.988281 -9.40625 4.4375 -9.40625 C 3.832031 -9.40625 3.367188 -9.234375 3.046875 -8.890625 C 2.722656 -8.554688 2.5625 -8.179688 2.5625 -7.765625 C 2.5625 -7.066406 2.78125 -6.488281 3.21875 -6.03125 L 2.015625 -4.921875 C 1.609375 -5.148438 1.273438 -5.550781 1.015625 -6.125 C 0.765625 -6.707031 0.640625 -7.238281 0.640625 -7.71875 C 0.640625 -8.332031 0.800781 -8.914062 1.125 -9.46875 C 1.457031 -10.03125 1.9375 -10.472656 2.5625 -10.796875 C 3.1875 -11.128906 3.921875 -11.296875 4.765625 -11.296875 C 5.484375 -11.296875 6.117188 -11.128906 6.671875 -10.796875 C 7.234375 -10.472656 7.664062 -10.03125 7.96875 -9.46875 C 8.269531 -8.914062 8.421875 -8.320312 8.421875 -7.6875 C 8.421875 -7.039062 8.273438 -6.398438 7.984375 -5.765625 C 7.691406 -5.140625 7.335938 -4.554688 6.921875 -4.015625 C 6.515625 -3.472656 5.9375 -2.765625 5.1875 -1.890625 Z M 8.703125 -1.890625 "/></g></g></g><g fill="rgb(0%, 0%, 0%)" fill-opacity="1"><g transform="translate(213.564955, 104.618534)"><g><path d="M 5.296875 0.03125 C 4.390625 0.0390625 3.582031 -0.171875 2.875 -0.609375 C 2.164062 -1.054688 1.609375 -1.707031 1.203125 -2.5625 C 0.796875 -3.425781 0.59375 -4.453125 0.59375 -5.640625 C 0.59375 -7.554688 1.007812 -8.976562 1.84375 -9.90625 C 2.6875 -10.832031 3.835938 -11.289062 5.296875 -11.28125 C 6.203125 -11.289062 7.007812 -11.070312 7.71875 -10.625 C 8.425781 -10.1875 8.976562 -9.539062 9.375 -8.6875 C 9.78125 -7.832031 9.984375 -6.816406 9.984375 -5.640625 C 9.984375 -4.421875 9.78125 -3.382812 9.375 -2.53125 C 8.96875 -1.675781 8.410156 -1.03125 7.703125 -0.59375 C 7.003906 -0.164062 6.203125 0.0390625 5.296875 0.03125 Z M 5.28125 -1.84375 C 6.164062 -1.84375 6.828125 -2.1875 7.265625 -2.875 C 7.710938 -3.570312 7.9375 -4.507812 7.9375 -5.6875 C 7.9375 -6.820312 7.710938 -7.722656 7.265625 -8.390625 C 6.828125 -9.066406 6.164062 -9.398438 5.28125 -9.390625 C 4.394531 -9.398438 3.734375 -9.0625 3.296875 -8.375 C 2.859375 -7.695312 2.640625 -6.785156 2.640625 -5.640625 C 2.640625 -4.484375 2.859375 -3.5625 3.296875 -2.875 C 3.734375 -2.1875 4.394531 -1.84375 5.28125 -1.84375 Z M 5.28125 -1.84375 "/></g></g></g><g fill="rgb(21.958923%, 34.118652%, 50.979614%)" fill-opacity="1"><g transform="translate(226.725792, 104.618534)"><g><path d="M 2.515625 -12.890625 L 2.515625 -3.25 L 0.828125 -3.25 L 0.828125 -12.890625 Z M 1.71875 0.046875 C 1.382812 0.046875 1.109375 -0.0390625 0.890625 -0.21875 C 0.671875 -0.40625 0.5625 -0.65625 0.5625 -0.96875 C 0.5625 -1.257812 0.671875 -1.503906 0.890625 -1.703125 C 1.117188 -1.910156 1.394531 -2.015625 1.71875 -2.015625 C 2.050781 -2.015625 2.320312 -1.910156 2.53125 -1.703125 C 2.75 -1.503906 2.859375 -1.257812 2.859375 -0.96875 C 2.859375 -0.65625 2.753906 -0.40625 2.546875 -0.21875 C 2.335938 -0.0390625 2.0625 0.046875 1.71875 0.046875 Z M 1.71875 0.046875 "/></g></g></g></svg>