<svg width="916" height="302" viewBox="0 0 916 302" fill="none" xmlns="http://www.w3.org/2000/svg">
<path d="M116.8 243.613C113.067 243.613 110.133 242.813 108 241.213C106 239.48 105 237.813 105 236.213C105 235.146 105.467 234.28 106.4 233.613C107.333 232.813 108.8 232.413 110.8 232.413C121.867 232.413 132.6 230.346 143 226.213C153.4 222.08 162.8 216.48 171.2 209.413C179.6 202.213 186.267 194.013 191.2 184.813C196.133 175.613 198.6 165.946 198.6 155.813C198.6 148.346 197 142.08 193.8 137.013C190.6 131.946 186.4 127.746 181.2 124.413C173.6 119.613 164.867 116.146 155 114.013C145.133 111.88 135.067 110.813 124.8 110.813C115.6 110.813 106.6 111.546 97.8 113.013C89 114.48 80.9333 116.346 73.6 118.613C68.2667 120.346 63.2 122.546 58.4 125.213C53.7333 127.746 49.9333 130.613 47 133.813C44.2 136.88 42.8 140.146 42.8 143.613C42.8 146.946 44.1333 149.68 46.8 151.813C49.6 153.813 53.1333 154.813 57.4 154.813C61.8 154.813 66.7333 153.68 72.2 151.413C77.8 149.013 83.4667 145.146 89.2 139.813C89.4667 139.546 89.6667 139.413 89.8 139.413C90.2 139.413 90.4 139.746 90.4 140.413C90.4 141.213 90.0667 142.28 89.4 143.613C88.8667 144.946 88 146.146 86.8 147.213C82.1333 151.48 76.9333 154.68 71.2 156.813C65.4667 158.813 59.9333 159.813 54.6 159.813C53.2667 159.813 51.8667 159.746 50.4 159.613C49.0667 159.48 47.8 159.28 46.6 159.013C42.0667 157.946 38.4667 155.813 35.8 152.613C33.2667 149.413 32 145.746 32 141.613C32 136.28 33.6 131.546 36.8 127.413C40.1333 123.28 44.4667 119.613 49.8 116.413C55.2667 113.213 61.2667 110.546 67.8 108.413C75.8 105.746 84.4 103.613 93.6 102.013C102.933 100.413 112.267 99.6131 121.6 99.6131C132.667 99.6131 143.467 100.88 154 103.413C164.533 105.813 174 109.813 182.4 115.413C189.867 120.346 195.8 126.546 200.2 134.013C204.6 141.346 206.8 149.746 206.8 159.213C206.8 170.946 204.267 181.946 199.2 192.213C194.133 202.346 187.267 211.28 178.6 219.013C169.933 226.746 160.267 232.813 149.6 237.213C138.933 241.48 128 243.613 116.8 243.613ZM104 248.413C100.8 248.413 98.2667 247.146 96.4 244.613C94.5333 242.213 93.0667 239.546 92 236.613C90.8 232.746 89.9333 228.48 89.4 223.813C88.8667 219.013 88.6 213.946 88.6 208.613C88.6 200.613 89.0667 192.346 90 183.813C90.9333 175.28 92.0667 167.146 93.4 159.413C94.8667 151.68 96.2 145.08 97.4 139.613C98.2 136.146 98.9333 132.68 99.6 129.213C100.267 125.613 101.267 122.28 102.6 119.213C102.733 118.813 103 118.546 103.4 118.413C103.933 118.28 104.4 118.213 104.8 118.213C105.733 118.213 107.2 118.413 109.2 118.813C111.333 119.213 113.333 119.813 115.2 120.613C117.2 121.413 118.4 122.413 118.8 123.613V124.613C116 132.88 113.2 141.946 110.4 151.813C107.6 161.546 105.267 171.68 103.4 182.213C101.533 192.613 100.6 203.08 100.6 213.613V214.413C100.6 218.146 100.6 222.146 100.6 226.413C100.733 230.68 101.067 234.746 101.6 238.613C102.267 242.48 103.267 245.746 104.6 248.413H104ZM230.605 142.413C228.071 142.413 225.805 141.48 223.805 139.613C221.938 137.746 221.005 135.48 221.005 132.813C221.005 130.146 221.938 127.88 223.805 126.013C225.805 124.146 228.071 123.213 230.605 123.213C233.271 123.213 235.538 124.146 237.405 126.013C239.271 127.88 240.205 130.146 240.205 132.813C240.205 135.48 239.271 137.746 237.405 139.613C235.538 141.48 233.271 142.413 230.605 142.413ZM233.005 245.613C228.205 245.613 224.271 243.946 221.205 240.613C218.271 237.28 216.005 233.213 214.405 228.413C212.938 223.48 211.871 218.746 211.205 214.213C210.805 211.146 210.538 208.28 210.405 205.613C210.405 202.813 210.405 200.08 210.405 197.413C210.671 189.813 211.338 182.813 212.405 176.413C213.605 170.013 214.805 165.68 216.005 163.413C216.805 161.813 218.071 160.346 219.805 159.013C221.671 157.546 224.138 156.813 227.205 156.813C228.938 156.813 230.671 157.013 232.405 157.413C231.071 162.08 229.471 168.613 227.605 177.013C225.738 185.28 224.805 194.413 224.805 204.413C224.805 209.48 225.138 214.613 225.805 219.813C226.471 225.013 227.738 229.413 229.605 233.013C231.605 236.48 234.338 238.213 237.805 238.213C240.605 238.213 243.071 237.146 245.205 235.013C247.871 232.48 249.871 229.08 251.205 224.813C252.671 220.546 253.938 216.213 255.005 211.813C255.405 209.946 256.071 209.013 257.005 209.013C257.938 209.013 258.405 209.813 258.405 211.413C258.405 211.813 258.338 212.28 258.205 212.813C258.205 213.346 258.138 213.946 258.005 214.613C257.205 219.146 255.805 223.813 253.805 228.613C251.938 233.413 249.338 237.48 246.005 240.813C242.671 244.013 238.338 245.613 233.005 245.613ZM274.783 244.413C269.983 244.413 266.183 242.88 263.383 239.813C260.583 236.746 258.516 233.08 257.183 228.813C255.849 224.413 255.049 220.346 254.783 216.613C254.516 213.013 254.316 209.213 254.183 205.213C254.049 201.08 253.983 196.746 253.983 192.213C253.983 183.946 254.183 175.413 254.583 166.613C255.116 157.813 255.849 149.28 256.783 141.013C257.849 132.613 259.116 125.146 260.583 118.613C261.383 115.28 262.649 111.48 264.383 107.213C266.116 102.946 268.383 99.2798 271.183 96.2131C273.983 93.0131 277.316 91.4131 281.183 91.4131C289.049 91.4131 292.983 97.3464 292.983 109.213C292.983 113.88 292.183 120.613 290.583 129.413C289.116 138.08 286.383 147.813 282.383 158.613C280.383 164.213 277.983 169.88 275.183 175.613C272.516 181.213 269.849 186.346 267.183 191.013C267.049 192.08 266.983 193.213 266.983 194.413C266.983 195.48 266.983 196.546 266.983 197.613C266.983 202.146 267.116 206.746 267.383 211.413C267.783 216.08 268.383 220.413 269.183 224.413C270.116 228.28 271.383 231.413 272.983 233.813C274.583 236.213 276.649 237.413 279.183 237.413C282.116 237.413 284.449 236.213 286.183 233.813C288.049 231.28 289.449 228.88 290.383 226.613C290.916 225.413 291.383 224.08 291.783 222.613C292.316 221.146 292.849 219.613 293.383 218.013C293.916 216.546 294.649 215.813 295.583 215.813C296.249 215.813 296.583 216.546 296.583 218.013V218.413C296.583 219.346 296.383 220.546 295.983 222.013C295.716 223.48 295.316 224.946 294.783 226.413C293.183 231.346 290.849 235.613 287.783 239.213C284.716 242.68 280.383 244.413 274.783 244.413ZM267.383 182.413C270.849 175.346 274.049 167.88 276.983 160.013C279.916 152.013 282.249 144.146 283.983 136.413C285.849 128.68 286.783 121.68 286.783 115.413C286.783 111.546 286.449 108.346 285.783 105.813C285.249 103.28 284.183 102.013 282.583 102.013C281.116 102.013 279.716 103.546 278.383 106.613C277.183 109.546 276.049 113.48 274.983 118.413C273.916 123.346 272.916 128.68 271.983 134.413C271.183 140.013 270.449 145.613 269.783 151.213C269.249 156.68 268.783 161.546 268.383 165.813C268.116 169.946 267.916 172.946 267.783 174.813C267.783 175.613 267.716 176.68 267.583 178.013C267.583 179.213 267.516 180.68 267.383 182.413ZM326.422 247.413C319.889 247.413 314.289 245.88 309.622 242.813C305.089 239.746 301.555 235.68 299.022 230.613C296.622 225.413 295.289 219.813 295.022 213.813V209.813C295.022 203.413 295.689 197.013 297.022 190.613C298.489 184.213 300.689 178.346 303.622 173.013C306.555 167.68 310.289 163.413 314.822 160.213C319.355 156.88 324.755 155.213 331.022 155.213H332.422C336.155 155.346 338.822 156.746 340.422 159.413C342.155 162.08 343.022 164.946 343.022 168.013V168.813C343.022 176.013 341.355 182.28 338.022 187.613C334.822 192.813 330.755 197.013 325.822 200.213C320.889 203.413 315.755 205.613 310.422 206.813V207.813C310.422 211.146 310.689 214.746 311.222 218.613C311.755 222.346 312.755 225.946 314.222 229.413C315.689 232.88 317.755 235.746 320.422 238.013C323.089 240.146 326.489 241.213 330.622 241.213C335.689 241.213 339.955 239.613 343.422 236.413C346.889 233.213 349.555 229.413 351.422 225.013C352.222 223.146 352.889 221.08 353.422 218.813C354.089 216.413 354.689 213.88 355.222 211.213C355.489 209.613 356.022 208.813 356.822 208.813C357.889 208.813 358.422 209.946 358.422 212.213C358.422 212.613 358.355 213.08 358.222 213.613C358.222 214.013 358.155 214.546 358.022 215.213C357.222 219.88 356.089 224.013 354.622 227.613C351.955 234.546 348.422 239.613 344.022 242.813C339.755 245.88 333.889 247.413 326.422 247.413ZM310.622 202.413C314.755 201.213 318.355 199.08 321.422 196.013C324.622 192.813 327.155 189.08 329.022 184.813C330.889 180.546 331.889 176.213 332.022 171.813V170.613C332.022 168.346 331.622 166.146 330.822 164.013C330.022 161.88 328.689 160.813 326.822 160.813H326.622C324.222 160.813 322.089 162.013 320.222 164.413C318.489 166.68 317.022 169.613 315.822 173.213C314.622 176.813 313.622 180.546 312.822 184.413C312.022 188.28 311.422 191.813 311.022 195.013C310.755 198.213 310.622 200.546 310.622 202.013V202.413ZM359.178 245.213C355.578 245.213 353.778 242.813 353.778 238.013C353.778 237.213 353.778 236.346 353.778 235.413C353.911 234.48 354.045 233.48 354.178 232.413C354.578 230.146 354.911 226.946 355.178 222.813C355.445 218.546 355.645 213.813 355.778 208.613C356.045 203.28 356.178 198.013 356.178 192.813C356.178 186.946 355.978 181.48 355.578 176.413C355.311 171.213 354.711 167.146 353.778 164.213C355.111 163.946 356.578 163.213 358.178 162.013C359.778 160.813 361.511 160.013 363.378 159.613C363.778 159.48 364.311 159.413 364.978 159.413C367.245 159.413 368.645 160.613 369.178 163.013C369.845 165.413 370.178 168.346 370.178 171.813C370.178 174.213 370.111 177.08 369.978 180.413C369.978 183.613 369.845 186.413 369.578 188.813C371.045 184.546 372.645 180.88 374.378 177.813C376.111 174.613 377.978 171.546 379.978 168.613C382.778 164.346 385.645 161.013 388.578 158.613C391.645 156.213 394.511 155.013 397.178 155.013C400.378 155.013 402.445 156.013 403.378 158.013C404.445 159.88 404.978 162.213 404.978 165.013C404.978 166.88 404.845 168.88 404.578 171.013C404.445 173.013 404.311 175.013 404.178 177.013L402.978 194.813L404.978 188.813C406.445 184.546 408.045 180.88 409.778 177.813C411.511 174.613 413.378 171.546 415.378 168.613C418.178 164.346 421.045 161.013 423.978 158.613C427.045 156.213 429.911 155.013 432.578 155.013C436.311 155.013 438.711 156.28 439.778 158.813C440.845 161.213 441.378 164.213 441.378 167.813C441.378 169.28 441.311 170.813 441.178 172.413C441.178 173.88 441.111 175.413 440.978 177.013C440.845 178.88 440.578 182.68 440.178 188.413C439.778 194.013 439.445 200.08 439.178 206.613C439.178 207.146 439.111 208.213 438.978 209.813C438.978 211.413 438.978 213.213 438.978 215.213C438.978 218.28 439.111 221.546 439.378 225.013C439.778 228.346 440.445 231.213 441.378 233.613C442.445 236.013 443.911 237.213 445.778 237.213C448.311 237.213 450.445 236.013 452.178 233.613C453.911 231.08 455.311 228.28 456.378 225.213C457.578 222.146 458.378 219.746 458.778 218.013C459.311 216.413 459.978 215.613 460.778 215.613C461.578 215.613 461.978 216.413 461.978 218.013V218.413C461.978 219.346 461.778 220.546 461.378 222.013C461.111 223.48 460.711 224.946 460.178 226.413C458.578 231.346 456.311 235.68 453.378 239.413C450.445 243.013 446.178 244.813 440.578 244.813C436.045 244.813 432.645 243.413 430.378 240.613C428.245 237.68 426.778 234.213 425.978 230.213C425.311 226.213 424.978 222.413 424.978 218.813V215.213C425.245 209.346 425.445 204.28 425.578 200.013C425.711 195.613 425.845 191.146 425.978 186.613C425.978 185.946 425.978 185.146 425.978 184.213C426.111 183.28 426.178 182.213 426.178 181.013C426.178 178.48 425.978 176.013 425.578 173.613C425.178 171.213 424.245 170.013 422.778 170.013C421.711 170.013 419.978 171.48 417.578 174.413C415.445 177.346 413.245 181.413 410.978 186.613C408.845 191.813 407.045 197.746 405.578 204.413C404.111 211.08 403.378 218.013 403.378 225.213C403.378 227.746 403.445 230.28 403.578 232.813C403.845 235.213 404.245 237.68 404.778 240.213C404.511 240.346 403.978 240.546 403.178 240.813C402.511 241.08 401.645 241.213 400.578 241.213C399.111 241.213 397.578 240.746 395.978 239.813C394.378 238.88 393.045 236.946 391.978 234.013C391.045 231.346 390.378 228.546 389.978 225.613C389.711 222.546 389.578 219.413 389.578 216.213C389.578 211.546 389.778 206.813 390.178 202.013C390.578 197.213 390.911 192.48 391.178 187.813V184.813C391.178 183.08 391.111 181.146 390.978 179.013C390.845 176.746 390.445 174.813 389.778 173.213C389.245 171.48 388.378 170.613 387.178 170.613C385.711 170.613 384.045 171.88 382.178 174.413C379.911 177.346 377.578 181.68 375.178 187.413C372.778 193.013 370.778 199.413 369.178 206.613C367.578 213.68 366.778 221.013 366.778 228.613C366.778 233.146 367.178 237.746 367.978 242.413C366.511 243.213 364.978 243.88 363.378 244.413C361.911 244.946 360.511 245.213 359.178 245.213ZM464.452 245.213C460.852 245.213 459.052 242.813 459.052 238.013C459.052 237.213 459.052 236.346 459.052 235.413C459.185 234.48 459.318 233.48 459.452 232.413C459.852 230.146 460.185 226.946 460.452 222.813C460.718 218.546 460.918 213.813 461.052 208.613C461.318 203.28 461.452 198.013 461.452 192.813C461.452 186.946 461.252 181.48 460.852 176.413C460.585 171.213 459.985 167.146 459.052 164.213C460.385 163.946 461.852 163.213 463.452 162.013C465.052 160.813 466.785 160.013 468.652 159.613C469.052 159.48 469.585 159.413 470.252 159.413C472.518 159.413 473.918 160.613 474.452 163.013C475.118 165.413 475.452 168.346 475.452 171.813C475.452 174.213 475.385 177.08 475.252 180.413C475.252 183.613 475.118 186.413 474.852 188.813C476.318 184.546 477.918 180.88 479.652 177.813C481.385 174.613 483.252 171.546 485.252 168.613C488.052 164.346 490.918 161.013 493.852 158.613C496.918 156.213 499.785 155.013 502.452 155.013C505.652 155.013 507.718 156.013 508.652 158.013C509.718 159.88 510.252 162.213 510.252 165.013C510.252 166.88 510.118 168.88 509.852 171.013C509.718 173.013 509.585 175.013 509.452 177.013L508.252 194.813L510.252 188.813C511.718 184.546 513.318 180.88 515.052 177.813C516.785 174.613 518.652 171.546 520.652 168.613C523.452 164.346 526.318 161.013 529.252 158.613C532.318 156.213 535.185 155.013 537.852 155.013C541.585 155.013 543.985 156.28 545.052 158.813C546.118 161.213 546.652 164.213 546.652 167.813C546.652 169.28 546.585 170.813 546.452 172.413C546.452 173.88 546.385 175.413 546.252 177.013C546.118 178.88 545.852 182.68 545.452 188.413C545.052 194.013 544.718 200.08 544.452 206.613C544.452 207.146 544.385 208.213 544.252 209.813C544.252 211.413 544.252 213.213 544.252 215.213C544.252 218.28 544.385 221.546 544.652 225.013C545.052 228.346 545.718 231.213 546.652 233.613C547.718 236.013 549.185 237.213 551.052 237.213C553.585 237.213 555.718 236.013 557.452 233.613C559.185 231.08 560.585 228.28 561.652 225.213C562.852 222.146 563.652 219.746 564.052 218.013C564.585 216.413 565.252 215.613 566.052 215.613C566.852 215.613 567.252 216.413 567.252 218.013V218.413C567.252 219.346 567.052 220.546 566.652 222.013C566.385 223.48 565.985 224.946 565.452 226.413C563.852 231.346 561.585 235.68 558.652 239.413C555.718 243.013 551.452 244.813 545.852 244.813C541.318 244.813 537.918 243.413 535.652 240.613C533.518 237.68 532.052 234.213 531.252 230.213C530.585 226.213 530.252 222.413 530.252 218.813V215.213C530.518 209.346 530.718 204.28 530.852 200.013C530.985 195.613 531.118 191.146 531.252 186.613C531.252 185.946 531.252 185.146 531.252 184.213C531.385 183.28 531.452 182.213 531.452 181.013C531.452 178.48 531.252 176.013 530.852 173.613C530.452 171.213 529.518 170.013 528.052 170.013C526.985 170.013 525.252 171.48 522.852 174.413C520.718 177.346 518.518 181.413 516.252 186.613C514.118 191.813 512.318 197.746 510.852 204.413C509.385 211.08 508.652 218.013 508.652 225.213C508.652 227.746 508.718 230.28 508.852 232.813C509.118 235.213 509.518 237.68 510.052 240.213C509.785 240.346 509.252 240.546 508.452 240.813C507.785 241.08 506.918 241.213 505.852 241.213C504.385 241.213 502.852 240.746 501.252 239.813C499.652 238.88 498.318 236.946 497.252 234.013C496.318 231.346 495.652 228.546 495.252 225.613C494.985 222.546 494.852 219.413 494.852 216.213C494.852 211.546 495.052 206.813 495.452 202.013C495.852 197.213 496.185 192.48 496.452 187.813V184.813C496.452 183.08 496.385 181.146 496.252 179.013C496.118 176.746 495.718 174.813 495.052 173.213C494.518 171.48 493.652 170.613 492.452 170.613C490.985 170.613 489.318 171.88 487.452 174.413C485.185 177.346 482.852 181.68 480.452 187.413C478.052 193.013 476.052 199.413 474.452 206.613C472.852 213.68 472.052 221.013 472.052 228.613C472.052 233.146 472.452 237.746 473.252 242.413C471.785 243.213 470.252 243.88 468.652 244.413C467.185 244.946 465.785 245.213 464.452 245.213ZM621.925 244.613C617.792 244.613 614.458 243.346 611.925 240.813C609.392 238.146 607.392 234.813 605.925 230.813C604.592 226.68 603.658 222.546 603.125 218.413C602.592 214.146 602.325 210.413 602.325 207.213C600.725 213.213 598.658 219.08 596.125 224.813C593.725 230.546 591.058 235.28 588.125 239.013C585.192 242.613 581.992 244.413 578.525 244.413H578.325C575.125 244.413 572.458 242.946 570.325 240.013C568.192 236.946 566.592 232.946 565.525 228.013C564.458 223.08 563.925 217.746 563.925 212.013V210.013C563.925 204.68 564.392 198.813 565.325 192.413C566.258 185.88 567.925 179.68 570.325 173.813C572.725 167.946 575.992 163.146 580.125 159.413C584.392 155.546 589.792 153.613 596.325 153.613C598.858 153.613 601.125 154.213 603.125 155.413C605.258 156.48 606.792 158.08 607.725 160.213C608.658 159.146 609.925 158.28 611.525 157.613C613.125 156.946 615.058 156.613 617.325 156.613C618.125 156.613 618.992 156.68 619.925 156.813C620.992 156.946 622.058 157.146 623.125 157.413C622.325 160.48 621.392 164.68 620.325 170.013C619.258 175.346 618.325 181.213 617.525 187.613C616.858 193.88 616.525 200.013 616.525 206.013V206.813C616.525 209.346 616.658 212.346 616.925 215.813C617.192 219.28 617.658 222.68 618.325 226.013C618.992 229.346 619.925 232.146 621.125 234.413C622.325 236.68 623.858 237.813 625.725 237.813H625.925C626.992 237.813 628.125 237.28 629.325 236.213C630.658 235.146 632.058 233.146 633.525 230.213C635.525 226.346 637.392 221.346 639.125 215.213C639.392 214.013 639.925 213.413 640.725 213.413C641.392 213.413 641.725 214.213 641.725 215.813V216.613C641.458 220.08 640.525 224.013 638.925 228.413C637.325 232.813 635.058 236.613 632.125 239.813C629.325 243.013 625.925 244.613 621.925 244.613ZM585.325 228.013C587.458 228.013 589.392 226.48 591.125 223.413C592.992 220.346 594.658 216.613 596.125 212.213C597.592 207.813 598.858 203.546 599.925 199.413C601.525 193.28 602.592 187.08 603.125 180.813C603.658 174.413 604.792 168.146 606.525 162.013C604.925 160.28 603.125 159.413 601.125 159.413C598.192 159.413 595.192 160.88 592.125 163.813C589.058 166.746 586.658 170.08 584.925 173.813C582.792 178.48 581.192 183.946 580.125 190.213C579.192 196.48 578.725 202.48 578.725 208.213C578.725 209.68 578.725 211.146 578.725 212.613C578.858 214.08 578.992 215.48 579.125 216.813C579.392 220.813 580.125 223.68 581.325 225.413C582.658 227.146 583.992 228.013 585.325 228.013Z" fill="#044179"/>
<path d="M644.24 150.763V121.944C649.373 118.717 656.12 116.077 664.48 114.023C672.84 111.97 681.933 110.943 691.76 110.943C707.453 110.943 719.993 114.023 729.38 120.183C738.913 126.343 743.68 136.757 743.68 151.423C743.68 163.01 740.967 172.323 735.54 179.363C730.26 186.257 720.873 192.27 707.38 197.403C694.327 202.39 685.307 206.643 680.32 210.163C675.48 213.537 673.06 216.91 673.06 220.283H744.78V248.223H640.5V223.583C640.5 216.103 641.747 209.723 644.24 204.443C646.88 199.163 651.353 194.323 657.66 189.923C663.967 185.523 672.693 180.977 683.84 176.283C692.2 172.763 698.727 169.39 703.42 166.163C708.26 162.79 710.607 158.757 710.46 154.063C710.313 148.49 708.187 144.603 704.08 142.403C700.12 140.057 694.473 138.883 687.14 138.883C680.1 138.883 672.913 140.13 665.58 142.623C658.247 144.97 651.793 147.683 646.22 150.763H644.24ZM873.162 180.023C873.162 196.743 871.255 210.163 867.442 220.283C863.629 230.403 857.469 237.737 848.962 242.283C840.455 246.83 829.089 249.103 814.862 249.103C800.782 249.103 789.489 246.83 780.982 242.283C772.475 237.737 766.315 230.403 762.502 220.283C758.689 210.163 756.782 196.743 756.782 180.023C756.782 163.157 758.689 149.663 762.502 139.543C766.315 129.423 772.475 122.09 780.982 117.543C789.489 112.997 800.782 110.724 814.862 110.724C829.089 110.724 840.455 112.997 848.962 117.543C857.469 122.09 863.629 129.423 867.442 139.543C871.255 149.663 873.162 163.157 873.162 180.023ZM814.862 219.843C824.835 219.843 831.362 216.617 834.442 210.163C837.669 203.563 839.282 193.517 839.282 180.023C839.282 166.383 837.669 156.337 834.442 149.883C831.362 143.43 824.835 140.203 814.862 140.203C805.035 140.203 798.509 143.43 795.282 149.883C792.202 156.337 790.662 166.383 790.662 180.023C790.662 193.517 792.202 203.563 795.282 210.163C798.509 216.617 805.035 219.843 814.862 219.843Z" fill="black"/>
</svg>
