<svg xmlns="http://www.w3.org/2000/svg" xmlns:xlink="http://www.w3.org/1999/xlink" width="375" zoomAndPan="magnify" viewBox="0 0 281.25 56.249996" height="75" preserveAspectRatio="xMidYMid meet" version="1.0"><defs><g/></defs><g fill="rgb(21.958923%, 34.118652%, 50.979614%)" fill-opacity="1"><g transform="translate(3.245754, 21.414482)"><g><path d="M 4.078125 -7.828125 L 4.390625 -8.265625 L 9.59375 -13.828125 L 12.4375 -13.828125 L 6.71875 -7.78125 L 12.640625 0 L 9.828125 0 L 5.109375 -6.375 L 4.140625 -5.421875 L 4.140625 0 L 1.890625 0 L 1.890625 -13.828125 L 4.140625 -13.828125 L 4.140625 -8.53125 Z M 4.078125 -7.828125 "/></g></g></g><g fill="rgb(21.958923%, 34.118652%, 50.979614%)" fill-opacity="1"><g transform="translate(19.23564, 21.414482)"><g><path d="M 11.0625 -13.828125 L 11.0625 -11.6875 L 4.125 -11.6875 L 4.125 -8.015625 L 10.3125 -8.015625 L 10.3125 -5.890625 L 4.125 -5.890625 L 4.125 -2.125 L 11.328125 -2.125 L 11.328125 0 L 1.890625 0 L 1.890625 -13.828125 Z M 11.0625 -13.828125 "/></g></g></g><g fill="rgb(21.958923%, 34.118652%, 50.979614%)" fill-opacity="1"><g transform="translate(34.636863, 21.414482)"><g><path d="M 4.125 -13.828125 L 4.125 0 L 1.890625 0 L 1.890625 -13.828125 Z M 4.125 -13.828125 "/></g></g></g><g fill="rgb(21.958923%, 34.118652%, 50.979614%)" fill-opacity="1"><g transform="translate(43.562849, 21.414482)"><g><path d="M 14.109375 -13.828125 L 14.109375 0.5 L 14.046875 0.5 L 4.078125 -9.171875 L 4.140625 0 L 1.890625 0 L 1.890625 -14.296875 L 2.015625 -14.296875 L 11.9375 -4.515625 L 11.90625 -13.828125 Z M 14.109375 -13.828125 "/></g></g></g><g fill="rgb(21.958923%, 34.118652%, 50.979614%)" fill-opacity="1"><g transform="translate(62.496027, 21.414482)"><g/></g></g><g fill="rgb(21.958923%, 34.118652%, 50.979614%)" fill-opacity="1"><g transform="translate(71.478976, 21.414482)"><g><path d="M 9.765625 -2.125 L 9.765625 0 L 1.03125 0 L 1.703125 -0.6875 C 2.960938 -1.9375 3.945312 -2.957031 4.65625 -3.75 C 5.375 -4.539062 5.96875 -5.335938 6.4375 -6.140625 C 6.914062 -6.941406 7.15625 -7.703125 7.15625 -8.421875 C 7.15625 -9.109375 6.945312 -9.632812 6.53125 -10 C 6.113281 -10.375 5.59375 -10.5625 4.96875 -10.5625 C 4.300781 -10.5625 3.78125 -10.367188 3.40625 -9.984375 C 3.039062 -9.609375 2.859375 -9.1875 2.859375 -8.71875 C 2.859375 -7.925781 3.109375 -7.273438 3.609375 -6.765625 L 2.265625 -5.53125 C 1.804688 -5.78125 1.429688 -6.226562 1.140625 -6.875 C 0.859375 -7.53125 0.71875 -8.125 0.71875 -8.65625 C 0.71875 -9.351562 0.898438 -10.007812 1.265625 -10.625 C 1.640625 -11.25 2.175781 -11.75 2.875 -12.125 C 3.582031 -12.5 4.410156 -12.6875 5.359375 -12.6875 C 6.148438 -12.6875 6.859375 -12.5 7.484375 -12.125 C 8.109375 -11.75 8.59375 -11.25 8.9375 -10.625 C 9.28125 -10.007812 9.453125 -9.34375 9.453125 -8.625 C 9.453125 -7.894531 9.285156 -7.175781 8.953125 -6.46875 C 8.628906 -5.757812 8.234375 -5.101562 7.765625 -4.5 C 7.304688 -3.894531 6.660156 -3.101562 5.828125 -2.125 Z M 9.765625 -2.125 "/></g></g></g><g fill="rgb(21.958923%, 34.118652%, 50.979614%)" fill-opacity="1"><g transform="translate(85.019285, 21.414482)"><g><path d="M 5.9375 0.03125 C 4.925781 0.0507812 4.019531 -0.1875 3.21875 -0.6875 C 2.425781 -1.1875 1.800781 -1.914062 1.34375 -2.875 C 0.894531 -3.84375 0.671875 -4.992188 0.671875 -6.328125 C 0.671875 -8.472656 1.140625 -10.066406 2.078125 -11.109375 C 3.023438 -12.160156 4.3125 -12.675781 5.9375 -12.65625 C 6.945312 -12.675781 7.851562 -12.4375 8.65625 -11.9375 C 9.457031 -11.4375 10.082031 -10.707031 10.53125 -9.75 C 10.976562 -8.789062 11.203125 -7.648438 11.203125 -6.328125 C 11.203125 -4.953125 10.972656 -3.785156 10.515625 -2.828125 C 10.054688 -1.878906 9.429688 -1.160156 8.640625 -0.671875 C 7.847656 -0.179688 6.945312 0.0507812 5.9375 0.03125 Z M 5.921875 -2.0625 C 6.921875 -2.0625 7.664062 -2.453125 8.15625 -3.234375 C 8.65625 -4.015625 8.90625 -5.0625 8.90625 -6.375 C 8.90625 -7.65625 8.65625 -8.671875 8.15625 -9.421875 C 7.664062 -10.179688 6.921875 -10.550781 5.921875 -10.53125 C 4.929688 -10.550781 4.191406 -10.175781 3.703125 -9.40625 C 3.210938 -8.644531 2.96875 -7.617188 2.96875 -6.328125 C 2.96875 -5.035156 3.210938 -4 3.703125 -3.21875 C 4.191406 -2.445312 4.929688 -2.0625 5.921875 -2.0625 Z M 5.921875 -2.0625 "/></g></g></g><g fill="rgb(21.958923%, 34.118652%, 50.979614%)" fill-opacity="1"><g transform="translate(99.793873, 21.414482)"><g><path d="M 3.890625 -4.96875 C 3.890625 -4.4375 4.03125 -3.941406 4.3125 -3.484375 C 4.59375 -3.035156 4.972656 -2.675781 5.453125 -2.40625 C 5.929688 -2.132812 6.457031 -2 7.03125 -2 C 7.625 -2 8.160156 -2.128906 8.640625 -2.390625 C 9.128906 -2.660156 9.515625 -3.019531 9.796875 -3.46875 C 10.078125 -3.925781 10.21875 -4.425781 10.21875 -4.96875 L 10.21875 -13.828125 L 12.390625 -13.828125 L 12.390625 -4.921875 C 12.390625 -3.929688 12.148438 -3.050781 11.671875 -2.28125 C 11.203125 -1.519531 10.554688 -0.921875 9.734375 -0.484375 C 8.910156 -0.0546875 8.007812 0.15625 7.03125 0.15625 C 6.039062 0.15625 5.132812 -0.0546875 4.3125 -0.484375 C 3.5 -0.921875 2.859375 -1.519531 2.390625 -2.28125 C 1.921875 -3.050781 1.6875 -3.929688 1.6875 -4.921875 L 1.6875 -13.828125 L 3.890625 -13.828125 Z M 3.890625 -4.96875 "/></g></g></g><g fill="rgb(21.958923%, 34.118652%, 50.979614%)" fill-opacity="1"><g transform="translate(116.771181, 21.414482)"><g><path d="M 13.140625 0 L 10.921875 0 L 10.921875 -5.890625 L 4.125 -5.890625 L 4.125 0 L 1.890625 0 L 1.890625 -13.828125 L 4.125 -13.828125 L 4.125 -8 L 10.921875 -8 L 10.921875 -13.828125 L 13.140625 -13.828125 Z M 13.140625 0 "/></g></g></g><g fill="rgb(21.958923%, 34.118652%, 50.979614%)" fill-opacity="1"><g transform="translate(134.71693, 21.414482)"><g><path d="M 9.453125 0 L 6.34375 -4.796875 L 4.125 -4.796875 L 4.125 0 L 1.890625 0 L 1.890625 -13.828125 L 5.796875 -13.828125 C 7.335938 -13.828125 8.570312 -13.429688 9.5 -12.640625 C 10.425781 -11.859375 10.890625 -10.769531 10.890625 -9.375 C 10.890625 -8.53125 10.707031 -7.742188 10.34375 -7.015625 C 9.988281 -6.285156 9.425781 -5.722656 8.65625 -5.328125 L 12.015625 0 Z M 4.125 -6.921875 L 6.09375 -6.921875 C 6.976562 -6.921875 7.617188 -7.164062 8.015625 -7.65625 C 8.421875 -8.144531 8.625 -8.691406 8.625 -9.296875 C 8.625 -9.648438 8.546875 -10.007812 8.390625 -10.375 C 8.234375 -10.738281 7.972656 -11.046875 7.609375 -11.296875 C 7.242188 -11.554688 6.765625 -11.6875 6.171875 -11.6875 L 4.125 -11.6875 Z M 4.125 -6.921875 "/></g></g></g><g fill="rgb(21.958923%, 34.118652%, 50.979614%)" fill-opacity="1"><g transform="translate(150.346019, 21.414482)"><g/></g></g><g fill="rgb(21.958923%, 34.118652%, 50.979614%)" fill-opacity="1"><g transform="translate(159.328968, 21.414482)"><g><path d="M 1.890625 -13.828125 L 5.828125 -13.828125 C 7.554688 -13.828125 8.988281 -13.484375 10.125 -12.796875 C 11.257812 -12.109375 12.085938 -11.226562 12.609375 -10.15625 C 13.128906 -9.082031 13.390625 -7.9375 13.390625 -6.71875 C 13.390625 -5.375 13.070312 -4.191406 12.4375 -3.171875 C 11.8125 -2.160156 10.972656 -1.378906 9.921875 -0.828125 C 8.878906 -0.273438 7.738281 0 6.5 0 L 1.890625 0 Z M 6.09375 -2.125 C 7.082031 -2.125 7.953125 -2.304688 8.703125 -2.671875 C 9.453125 -3.046875 10.039062 -3.585938 10.46875 -4.296875 C 10.894531 -5.015625 11.109375 -5.875 11.109375 -6.875 C 11.109375 -7.957031 10.875 -8.863281 10.40625 -9.59375 C 9.945312 -10.320312 9.359375 -10.859375 8.640625 -11.203125 C 7.929688 -11.546875 7.195312 -11.71875 6.4375 -11.71875 L 4.125 -11.71875 L 4.125 -2.125 Z M 6.09375 -2.125 "/></g></g></g><g fill="rgb(21.958923%, 34.118652%, 50.979614%)" fill-opacity="1"><g transform="translate(176.686054, 21.414482)"><g><path d="M 4.125 -13.828125 L 4.125 0 L 1.890625 0 L 1.890625 -13.828125 Z M 4.125 -13.828125 "/></g></g></g><g fill="rgb(21.958923%, 34.118652%, 50.979614%)" fill-opacity="1"><g transform="translate(185.612039, 21.414482)"><g><path d="M 4.125 -13.828125 L 4.125 -2.125 L 10.9375 -2.125 L 10.9375 0 L 1.890625 0 L 1.890625 -13.828125 Z M 4.125 -13.828125 "/></g></g></g><g fill="rgb(21.958923%, 34.118652%, 50.979614%)" fill-opacity="1"><g transform="translate(200.481582, 21.414482)"><g><path d="M 11.0625 -13.828125 L 11.0625 -11.6875 L 4.125 -11.6875 L 4.125 -8.015625 L 10.3125 -8.015625 L 10.3125 -5.890625 L 4.125 -5.890625 L 4.125 -2.125 L 11.328125 -2.125 L 11.328125 0 L 1.890625 0 L 1.890625 -13.828125 Z M 11.0625 -13.828125 "/></g></g></g><g fill="rgb(21.958923%, 34.118652%, 50.979614%)" fill-opacity="1"><g transform="translate(215.882814, 21.414482)"><g><path d="M 15.859375 -14.3125 L 15.859375 0 L 13.65625 0 L 13.65625 -8 L 8.8125 -1.125 L 8.765625 -1.125 L 4.046875 -7.671875 L 4.046875 0 L 1.890625 0 L 1.890625 -14.3125 L 1.921875 -14.3125 L 8.8125 -4.5625 L 15.8125 -14.3125 Z M 15.859375 -14.3125 "/></g></g></g><g fill="rgb(21.958923%, 34.118652%, 50.979614%)" fill-opacity="1"><g transform="translate(236.543997, 21.414482)"><g><path d="M 15.859375 -14.3125 L 15.859375 0 L 13.65625 0 L 13.65625 -8 L 8.8125 -1.125 L 8.765625 -1.125 L 4.046875 -7.671875 L 4.046875 0 L 1.890625 0 L 1.890625 -14.3125 L 1.921875 -14.3125 L 8.8125 -4.5625 L 15.8125 -14.3125 Z M 15.859375 -14.3125 "/></g></g></g><g fill="rgb(21.958923%, 34.118652%, 50.979614%)" fill-opacity="1"><g transform="translate(257.205181, 21.414482)"><g><path d="M 9 -3.25 L 3.96875 -3.25 L 2.640625 0 L 0.453125 0 L 6.5625 -14.390625 L 6.703125 -14.390625 L 12.8125 0 L 10.265625 0 Z M 8.265625 -5.140625 L 6.53125 -9.515625 L 4.75 -5.140625 Z M 8.265625 -5.140625 "/></g></g></g><g fill="rgb(21.958923%, 34.118652%, 50.979614%)" fill-opacity="1"><g transform="translate(273.384964, 21.414482)"><g><path d="M 1.65625 2.3125 L -0.0625 2.3125 L 0.4375 0.984375 C 1.007812 -0.546875 1.335938 -1.429688 1.421875 -1.671875 L 3.328125 -1.671875 Z M 1.65625 2.3125 "/></g></g></g><g fill="rgb(21.958923%, 34.118652%, 50.979614%)" fill-opacity="1"><g transform="translate(40.876815, 47.319084)"><g><path d="M 15.859375 -14.3125 L 15.859375 0 L 13.65625 0 L 13.65625 -8 L 8.8125 -1.125 L 8.765625 -1.125 L 4.046875 -7.671875 L 4.046875 0 L 1.890625 0 L 1.890625 -14.3125 L 1.921875 -14.3125 L 8.8125 -4.5625 L 15.8125 -14.3125 Z M 15.859375 -14.3125 "/></g></g></g><g fill="rgb(21.958923%, 34.118652%, 50.979614%)" fill-opacity="1"><g transform="translate(61.53799, 47.319084)"><g><path d="M 4.125 -13.828125 L 4.125 0 L 1.890625 0 L 1.890625 -13.828125 Z M 4.125 -13.828125 "/></g></g></g><g fill="rgb(21.958923%, 34.118652%, 50.979614%)" fill-opacity="1"><g transform="translate(70.463977, 47.319084)"><g><path d="M 10.15625 -13.828125 L 10.15625 -11.6875 L 6.59375 -11.6875 L 6.59375 0 L 4.390625 0 L 4.390625 -11.6875 L 0.90625 -11.6875 L 0.90625 -13.828125 Z M 10.15625 -13.828125 "/></g></g></g><g fill="rgb(21.958923%, 34.118652%, 50.979614%)" fill-opacity="1"><g transform="translate(84.441032, 47.319084)"><g/></g></g><g fill="rgb(21.958923%, 34.118652%, 50.979614%)" fill-opacity="1"><g transform="translate(93.423983, 47.319084)"><g><path d="M 1.890625 -13.828125 L 5.828125 -13.828125 C 7.554688 -13.828125 8.988281 -13.484375 10.125 -12.796875 C 11.257812 -12.109375 12.085938 -11.226562 12.609375 -10.15625 C 13.128906 -9.082031 13.390625 -7.9375 13.390625 -6.71875 C 13.390625 -5.375 13.070312 -4.191406 12.4375 -3.171875 C 11.8125 -2.160156 10.972656 -1.378906 9.921875 -0.828125 C 8.878906 -0.273438 7.738281 0 6.5 0 L 1.890625 0 Z M 6.09375 -2.125 C 7.082031 -2.125 7.953125 -2.304688 8.703125 -2.671875 C 9.453125 -3.046875 10.039062 -3.585938 10.46875 -4.296875 C 10.894531 -5.015625 11.109375 -5.875 11.109375 -6.875 C 11.109375 -7.957031 10.875 -8.863281 10.40625 -9.59375 C 9.945312 -10.320312 9.359375 -10.859375 8.640625 -11.203125 C 7.929688 -11.546875 7.195312 -11.71875 6.4375 -11.71875 L 4.125 -11.71875 L 4.125 -2.125 Z M 6.09375 -2.125 "/></g></g></g><g fill="rgb(21.958923%, 34.118652%, 50.979614%)" fill-opacity="1"><g transform="translate(110.781069, 47.319084)"><g><path d="M 4.125 -13.828125 L 4.125 0 L 1.890625 0 L 1.890625 -13.828125 Z M 4.125 -13.828125 "/></g></g></g><g fill="rgb(21.958923%, 34.118652%, 50.979614%)" fill-opacity="1"><g transform="translate(119.707054, 47.319084)"><g><path d="M 4.125 -13.828125 L 4.125 -2.125 L 10.9375 -2.125 L 10.9375 0 L 1.890625 0 L 1.890625 -13.828125 Z M 4.125 -13.828125 "/></g></g></g><g fill="rgb(21.958923%, 34.118652%, 50.979614%)" fill-opacity="1"><g transform="translate(134.576586, 47.319084)"><g><path d="M 11.0625 -13.828125 L 11.0625 -11.6875 L 4.125 -11.6875 L 4.125 -8.015625 L 10.3125 -8.015625 L 10.3125 -5.890625 L 4.125 -5.890625 L 4.125 -2.125 L 11.328125 -2.125 L 11.328125 0 L 1.890625 0 L 1.890625 -13.828125 Z M 11.0625 -13.828125 "/></g></g></g><g fill="rgb(21.958923%, 34.118652%, 50.979614%)" fill-opacity="1"><g transform="translate(149.977806, 47.319084)"><g><path d="M 15.859375 -14.3125 L 15.859375 0 L 13.65625 0 L 13.65625 -8 L 8.8125 -1.125 L 8.765625 -1.125 L 4.046875 -7.671875 L 4.046875 0 L 1.890625 0 L 1.890625 -14.3125 L 1.921875 -14.3125 L 8.8125 -4.5625 L 15.8125 -14.3125 Z M 15.859375 -14.3125 "/></g></g></g><g fill="rgb(21.958923%, 34.118652%, 50.979614%)" fill-opacity="1"><g transform="translate(170.638979, 47.319084)"><g><path d="M 15.859375 -14.3125 L 15.859375 0 L 13.65625 0 L 13.65625 -8 L 8.8125 -1.125 L 8.765625 -1.125 L 4.046875 -7.671875 L 4.046875 0 L 1.890625 0 L 1.890625 -14.3125 L 1.921875 -14.3125 L 8.8125 -4.5625 L 15.8125 -14.3125 Z M 15.859375 -14.3125 "/></g></g></g><g fill="rgb(21.958923%, 34.118652%, 50.979614%)" fill-opacity="1"><g transform="translate(191.300152, 47.319084)"><g><path d="M 9 -3.25 L 3.96875 -3.25 L 2.640625 0 L 0.453125 0 L 6.5625 -14.390625 L 6.703125 -14.390625 L 12.8125 0 L 10.265625 0 Z M 8.265625 -5.140625 L 6.53125 -9.515625 L 4.75 -5.140625 Z M 8.265625 -5.140625 "/></g></g></g><g fill="rgb(0%, 0%, 0%)" fill-opacity="1"><g transform="translate(207.475793, 47.319084)"><g><path d="M 9.765625 -2.125 L 9.765625 0 L 1.03125 0 L 1.703125 -0.6875 C 2.960938 -1.9375 3.945312 -2.957031 4.65625 -3.75 C 5.375 -4.539062 5.96875 -5.335938 6.4375 -6.140625 C 6.914062 -6.941406 7.15625 -7.703125 7.15625 -8.421875 C 7.15625 -9.109375 6.945312 -9.632812 6.53125 -10 C 6.113281 -10.375 5.59375 -10.5625 4.96875 -10.5625 C 4.300781 -10.5625 3.78125 -10.367188 3.40625 -9.984375 C 3.039062 -9.609375 2.859375 -9.1875 2.859375 -8.71875 C 2.859375 -7.925781 3.109375 -7.273438 3.609375 -6.765625 L 2.265625 -5.53125 C 1.804688 -5.78125 1.429688 -6.226562 1.140625 -6.875 C 0.859375 -7.53125 0.71875 -8.125 0.71875 -8.65625 C 0.71875 -9.351562 0.898438 -10.007812 1.265625 -10.625 C 1.640625 -11.25 2.175781 -11.75 2.875 -12.125 C 3.582031 -12.5 4.410156 -12.6875 5.359375 -12.6875 C 6.148438 -12.6875 6.859375 -12.5 7.484375 -12.125 C 8.109375 -11.75 8.59375 -11.25 8.9375 -10.625 C 9.28125 -10.007812 9.453125 -9.34375 9.453125 -8.625 C 9.453125 -7.894531 9.285156 -7.175781 8.953125 -6.46875 C 8.628906 -5.757812 8.234375 -5.101562 7.765625 -4.5 C 7.304688 -3.894531 6.660156 -3.101562 5.828125 -2.125 Z M 9.765625 -2.125 "/></g></g></g><g fill="rgb(0%, 0%, 0%)" fill-opacity="1"><g transform="translate(221.016105, 47.319084)"><g><path d="M 5.9375 0.03125 C 4.925781 0.0507812 4.019531 -0.1875 3.21875 -0.6875 C 2.425781 -1.1875 1.800781 -1.914062 1.34375 -2.875 C 0.894531 -3.84375 0.671875 -4.992188 0.671875 -6.328125 C 0.671875 -8.472656 1.140625 -10.066406 2.078125 -11.109375 C 3.023438 -12.160156 4.3125 -12.675781 5.9375 -12.65625 C 6.945312 -12.675781 7.851562 -12.4375 8.65625 -11.9375 C 9.457031 -11.4375 10.082031 -10.707031 10.53125 -9.75 C 10.976562 -8.789062 11.203125 -7.648438 11.203125 -6.328125 C 11.203125 -4.953125 10.972656 -3.785156 10.515625 -2.828125 C 10.054688 -1.878906 9.429688 -1.160156 8.640625 -0.671875 C 7.847656 -0.179688 6.945312 0.0507812 5.9375 0.03125 Z M 5.921875 -2.0625 C 6.921875 -2.0625 7.664062 -2.453125 8.15625 -3.234375 C 8.65625 -4.015625 8.90625 -5.0625 8.90625 -6.375 C 8.90625 -7.65625 8.65625 -8.671875 8.15625 -9.421875 C 7.664062 -10.179688 6.921875 -10.550781 5.921875 -10.53125 C 4.929688 -10.550781 4.191406 -10.175781 3.703125 -9.40625 C 3.210938 -8.644531 2.96875 -7.617188 2.96875 -6.328125 C 2.96875 -5.035156 3.210938 -4 3.703125 -3.21875 C 4.191406 -2.445312 4.929688 -2.0625 5.921875 -2.0625 Z M 5.921875 -2.0625 "/></g></g></g><g fill="rgb(21.958923%, 34.118652%, 50.979614%)" fill-opacity="1"><g transform="translate(235.785823, 47.319084)"><g><path d="M 2.828125 -14.46875 L 2.828125 -3.640625 L 0.9375 -3.640625 L 0.9375 -14.46875 Z M 1.9375 0.0625 C 1.550781 0.0625 1.234375 -0.0390625 0.984375 -0.25 C 0.742188 -0.457031 0.625 -0.734375 0.625 -1.078125 C 0.625 -1.410156 0.75 -1.691406 1 -1.921875 C 1.257812 -2.148438 1.570312 -2.265625 1.9375 -2.265625 C 2.300781 -2.265625 2.601562 -2.148438 2.84375 -1.921875 C 3.082031 -1.691406 3.203125 -1.410156 3.203125 -1.078125 C 3.203125 -0.734375 3.082031 -0.457031 2.84375 -0.25 C 2.613281 -0.0390625 2.3125 0.0625 1.9375 0.0625 Z M 1.9375 0.0625 "/></g></g></g></svg>